<svg width="80" height="80" viewBox="0 0 80 80" fill="none" xmlns="http://www.w3.org/2000/svg">
<rect width="80" height="80" rx="40" fill="#414BA0"/>
<path d="M27.872 54.0636C27.344 54.0636 26.9 53.8836 26.54 53.5236C26.18 53.1636 26 52.7196 26 52.1916V27.8196C26 27.2676 26.18 26.8236 26.54 26.4876C26.9 26.1276 27.344 25.9476 27.872 25.9476C28.592 25.9476 29.144 26.2836 29.528 26.9556L40.4018 48.7378L50.624 26.9556C51.008 26.2836 51.56 25.9476 52.28 25.9476C52.808 25.9476 53.252 26.1276 53.612 26.4876C53.972 26.8236 54.152 27.2676 54.152 27.8196V52.1916C54.152 52.7196 53.96 53.1636 53.576 53.5236C53.216 53.8836 52.784 54.0636 52.28 54.0636C51.752 54.0636 51.308 53.8836 50.948 53.5236C50.588 53.1636 50.408 52.7196 50.408 52.1916L50.7961 33.5L41.696 52.0476C41.288 52.6716 40.748 52.9836 40.076 52.9836C39.284 52.9836 38.708 52.6116 38.348 51.8676L29.744 34.6263V52.1916C29.744 52.7196 29.564 53.1636 29.204 53.5236C28.844 53.8836 28.4 54.0636 27.872 54.0636Z" fill="white"/>
<path d="M59.7374 31.6912C59.1395 32.7268 59.7125 34.482 58.6833 35.0793C57.8861 35.542 57.2189 33.9665 56.3523 33.6558C55.4863 33.3453 54.2731 33.9645 53.6559 33.2768C53.0273 32.5764 53.7187 31.4005 53.5027 30.4806C53.313 29.6729 52.764 29.0283 52.4755 28.251C52.0282 27.0459 50.5473 25.637 51.3271 24.6192C52.1531 23.5412 54.0867 25.0765 55.3243 24.5329C56.3072 24.1013 56.2144 21.8749 57.2783 22.0055C58.5043 22.156 58.1484 24.9321 59.3796 25.0307C61.2399 25.1796 63.24 21.0503 64.3425 22.571C65.5259 24.2032 61.5184 25.7288 61.3472 27.7445C61.2604 28.7672 63.8256 28.5573 63.7472 29.5807C63.6707 30.5794 61.9864 30.4192 61.1069 30.882C60.632 31.132 60.0073 31.2239 59.7374 31.6912Z" fill="#00DB2C"/>
</svg>
