<svg width="180" height="12" viewBox="0 0 180 12" fill="none" xmlns="http://www.w3.org/2000/svg">
<path d="M179.957 8.46567C180.051 8.16863 179.995 7.42603 179.748 7.57455L179.559 8.79984L179.957 8.46567Z" fill="#81F297"/>
<path d="M178.214 6.20073C177.911 6.79482 177.551 7.83446 177.76 8.98549C178.063 7.79733 178.138 8.28002 178.46 6.90621C178.726 6.75769 178.915 7.31464 178.877 7.7602C178.972 7.46316 179.275 8.02011 179.426 7.24038C179.085 6.27499 178.65 6.23786 178.214 7.05473C178.1 6.75769 178.176 6.42351 178.214 6.20073Z" fill="#81F297"/>
<path d="M152.682 4.26997L152.851 4.41849C152.814 4.34423 152.757 4.3071 152.682 4.26997Z" fill="#81F297"/>
<path d="M136.885 3.60162C136.998 3.56449 137.054 3.4531 137.054 3.34171C136.941 3.41597 136.847 3.49023 136.885 3.60162Z" fill="#81F297"/>
<path d="M134.176 2.26494C134.233 2.30207 134.289 2.3392 134.327 2.3392C134.271 2.22781 134.214 2.15355 134.176 2.26494Z" fill="#81F297"/>
<path d="M152.682 4.26997L152.265 3.89866C152.246 4.3071 152.492 4.19571 152.682 4.26997Z" fill="#81F297"/>
<path d="M174.691 9.17115C174.786 9.09689 174.862 8.9855 174.918 8.83698C174.843 8.87411 174.767 8.94837 174.71 8.94837C174.691 9.02262 174.691 9.09689 174.691 9.17115Z" fill="#81F297"/>
<path d="M159.652 3.30458H159.785C159.822 3.15606 159.86 3.00754 159.898 2.82189L159.652 3.30458Z" fill="#81F297"/>
<path d="M165.012 3.0818C164.899 3.04467 164.842 4.08432 164.804 4.52988C164.88 4.08432 164.956 3.89867 165.069 3.8244C165.069 3.63875 165.05 3.41597 165.012 3.0818Z" fill="#81F297"/>
<path d="M173.498 4.93831L173.649 4.78979C173.592 4.82692 173.536 4.86405 173.498 4.93831Z" fill="#81F297"/>
<path d="M155.827 3.04467C155.827 2.89615 155.807 2.74763 155.769 2.67337C155.788 2.82189 155.807 2.93328 155.827 3.04467Z" fill="#81F297"/>
<path d="M6.23185 10.9163C6.23185 10.842 6.23185 10.8049 6.23185 10.7306C6.1926 10.842 6.17297 10.9163 6.23185 10.9163Z" fill="#81F297"/>
<path d="M0.0178247 5.75517L0.111988 5.68091C0.111988 5.49526 0.130821 5.27248 0.130821 5.08683L0.0178247 5.75517Z" fill="#81F297"/>
<path d="M129.233 0.928254C129.252 0.928254 129.252 0.928254 129.252 0.965384C129.384 0.816863 129.308 0.853993 129.233 0.928254Z" fill="#81F297"/>
<path d="M83.8884 1.67086C84.3998 2.59911 83.0549 2.85902 83.8315 3.89866C83.7558 3.52736 84.5323 2.30207 83.8884 1.67086Z" fill="#81F297"/>
<path d="M174.559 9.02262C174.483 9.02262 174.407 9.05976 174.331 9.02262C174.426 9.05976 174.502 9.05976 174.559 9.02262Z" fill="#81F297"/>
<path d="M83.8315 3.9358L83.9069 4.04719C83.8692 3.97293 83.8504 3.97293 83.8315 3.9358Z" fill="#81F297"/>
<path d="M117.849 1.55947C117.868 1.74512 117.925 1.89364 117.962 2.00503C117.962 1.89364 117.944 1.78225 117.849 1.55947Z" fill="#81F297"/>
<path d="M126.335 3.04467L126.127 2.89615C126.202 2.97041 126.278 3.00754 126.335 3.04467Z" fill="#81F297"/>
<path d="M113.455 3.00754C113.341 2.93328 113.304 2.78476 113.152 2.93328C113.171 2.97041 113.19 3.00754 113.19 3.04467C113.247 2.93328 113.323 2.85902 113.455 3.00754Z" fill="#81F297"/>
<path d="M108.871 3.00754C108.89 3.0818 108.928 3.15606 108.947 3.23032C108.985 3.19319 109.042 3.19319 109.099 3.15606L108.871 3.00754Z" fill="#81F297"/>
<path d="M20.1521 10.3964C20.0574 10.0994 19.9817 9.76523 19.9438 9.46819C20.0195 10.2108 19.3377 10.4707 20.1521 10.3964Z" fill="#81F297"/>
<path d="M174.69 8.57706C174.672 8.83697 174.634 8.98549 174.559 9.02262C174.615 9.02262 174.654 8.9855 174.71 8.94837C174.71 8.79984 174.709 8.68845 174.69 8.57706Z" fill="#81F297"/>
<path d="M113.266 11.2504L112.546 11.1019C112.735 11.2133 113.001 11.2504 113.266 11.2504Z" fill="#81F297"/>
<path d="M53.0326 10.2479L52.8631 10.3964C52.9196 10.3964 52.9761 10.3593 53.0326 10.2479Z" fill="#81F297"/>
<path d="M110.387 11.2504C110.254 10.8791 110.122 10.6564 109.97 10.545C109.932 10.6192 109.913 10.6935 109.894 10.8049L110.387 11.2504Z" fill="#81F297"/>
<path d="M15.152 11.9188C15.8528 11.9559 15.474 10.5821 15.6255 9.80236C16.4589 9.43106 16.0043 10.8049 16.2884 11.5103C16.7998 11.139 17.1976 9.87662 17.5764 9.95088C17.6143 10.1737 17.6901 10.2479 17.5954 10.545C18.1446 9.46819 19.2243 10.5078 19.8493 9.13402C19.9062 9.24541 19.9251 9.3568 19.9251 9.46819C19.8304 8.79984 19.8114 8.09437 19.8304 7.57455C20.1334 7.53742 20.3986 6.72056 20.5312 7.61168C20.3418 7.57455 20.3229 7.94585 20.2281 8.24289L20.5501 7.83446C20.8343 9.13402 20.1145 8.28002 20.1145 9.24541C20.7585 8.83697 21.4972 7.7602 21.9707 8.1315C22.0654 9.39393 20.8343 8.53993 21.4782 9.69097L20.7206 9.20828C21.2888 11.2133 20.266 9.05975 20.7964 11.2133C21.7813 11.5846 21.9139 10.5821 22.8988 10.9534C23.1261 10.2479 22.8231 9.91375 23.0503 9.20828C24.452 7.94585 24.1489 12.3643 25.1907 10.6935C25.4558 9.83949 25.5695 8.24289 26.2892 9.09688L26.043 10.5078C27.009 10.6564 26.5923 8.46567 27.5962 9.43106C27.4257 9.98801 26.8385 9.91375 26.9901 10.0623C27.653 11.139 27.4636 9.20828 27.956 9.20828L28.0507 10.4707C29.0736 10.285 30.1911 9.3568 31.3275 9.13402C31.2707 9.50532 31.0624 9.91375 31.3275 10.285C32.7481 9.65384 34.377 10.4336 35.7597 11.1762L36.2901 10.0994C36.4037 10.0994 36.5173 10.5821 36.3848 10.8049C36.9151 11.2133 36.4037 10.0994 36.6689 9.69097C36.9719 9.61671 37.0666 10.3222 36.8772 10.6564C37.8243 9.7281 39.5668 8.65132 40.5707 9.83949L40.3813 10.1737C41.1579 10.6192 41.2526 7.94585 41.9723 8.94837L41.8587 9.13402C43.5444 9.61671 45.4006 8.61419 46.6886 10.2479C46.9349 8.68845 48.3554 10.9534 48.4691 8.76271C49.4351 9.83949 49.1509 10.2479 50.5147 10.9534C50.8746 11.0648 51.045 9.57958 51.4996 9.3568L51.5186 10.5078L52.1247 9.31967L52.4467 10.6935L52.8631 10.3964C52.6926 10.3222 52.5035 9.87662 52.5414 9.54245C53.2043 9.02262 54.1324 10.3222 54.1513 10.9163L55.7045 9.95088C55.6666 10.3964 55.4014 10.5821 55.212 10.8791C56.0454 9.7281 55.3636 12.0673 56.1212 11.0277C56.0265 10.7677 56.178 10.3593 56.197 10.0994C56.5758 10.8049 57.4281 10.8049 58.0721 10.5078L57.9585 11.2876C59.1139 11.4732 60.3829 10.9163 61.6709 10.9163C61.2163 10.545 61.311 9.17115 61.6898 9.05976L61.8414 10.285C62.0876 9.54245 61.4436 9.83949 61.955 8.91123C62.4285 9.05976 62.277 10.2851 62.0118 10.6935L62.599 10.285C62.6369 10.6564 62.5043 10.842 62.4664 11.2876C62.7126 10.545 63.4703 12.5129 63.8302 11.2133L63.868 11.5846C65.156 11.5846 65.7432 11.1762 66.8039 11.1019C66.8228 10.0623 67.2395 10.285 67.5426 9.43106C68.3192 9.76523 69.1715 10.5821 70.0996 10.5078C70.7625 9.98801 70.289 9.61671 70.5921 8.98549C70.6489 9.95088 71.577 9.83949 71.0845 10.545C72.202 10.3964 72.5051 10.3593 73.9257 9.57958C73.7741 9.17115 73.6037 9.02262 73.6984 8.68845C73.9636 8.53993 74.2855 9.09689 74.2477 9.54245L74.1719 9.65384C75.7629 8.24289 77.8275 12.4386 79.0965 10.4336L78.9829 10.5078L80.2898 9.46819C80.8959 9.61671 79.9299 10.1737 80.3656 10.7677C81.7861 9.17115 82.6006 10.9905 83.756 9.95088C84.6652 12.7728 86.957 9.76523 88.1692 11.5475L88.0935 10.8791C88.4155 10.2479 88.4723 11.2504 88.6996 11.399C88.6617 10.8791 88.3587 10.8049 88.5481 10.4336C91.2187 9.65384 94.0409 11.399 96.7684 11.993C97.7723 12.1787 97.3367 8.57706 98.5868 10.1365L98.2269 11.3618C100.235 9.87662 102.356 11.399 104.326 10.1737C104.212 10.4707 104.212 10.842 104.004 10.8049C104.421 11.696 105.538 10.842 105.557 10.1365C105.86 10.2108 105.633 10.8049 105.822 11.1762C106.239 11.696 106.864 10.0251 107.091 10.9163C107.129 11.0648 106.978 11.2133 106.902 11.2876C107.224 10.8791 108.228 11.399 107.963 10.3964C108.701 10.8791 109.383 9.95088 109.97 10.545C110.349 9.39393 111.239 11.1019 111.353 9.46819C111.296 11.139 112.66 10.8049 113.133 10.0251C112.982 10.545 113.531 10.545 113.361 11.2504C113.891 11.2133 114.383 10.9163 114.289 10.0623C115.274 12.0673 116.259 8.42854 116.827 11.0277C118.418 10.1365 119.876 9.50532 121.316 9.13402C121.259 10.8049 119.744 9.28254 119.801 11.0648C121.164 10.3593 121.941 8.94836 123.286 9.3568C123.627 9.57958 123.096 10.0994 122.964 10.3593C124.309 9.65384 125.578 10.5078 126.79 9.61671C126.79 9.76523 126.657 9.95088 126.525 10.0623C126.771 10.0251 127.074 10.3222 127.055 9.54245L126.828 9.76523C126.449 8.65132 127.775 7.46316 127.813 6.86908C127.415 9.05976 129.006 7.42603 128.362 10.1737C128.513 10.0251 128.722 9.65384 128.684 9.17115C128.911 9.31967 128.987 9.61671 128.76 10.2108C129.612 9.80236 129.309 8.98549 130.086 8.98549C130.086 9.3568 129.934 9.50532 129.839 9.91375C130.237 9.20828 130.616 8.46567 131.279 8.79984C131.241 9.02262 131.317 9.31967 131.127 9.31967C132.245 9.20828 133.04 7.3889 134.253 8.09437C133.893 9.69097 134.669 8.61419 134.726 10.0251L135.389 9.61671L135.124 8.94837C135.692 8.9855 136.203 7.94585 136.715 8.42854L136.241 8.91123L137.321 8.65132L136.715 8.1315C137.302 7.42603 136.658 6.38638 137.416 6.75769C137.264 6.90621 138.003 6.75769 138.287 7.57455C138.571 7.12899 138.874 6.68343 139.291 7.0176C139.404 7.46316 139.196 8.53993 139.272 8.83698C139.556 7.68594 140.617 8.5028 140.977 7.27751C140.863 7.57455 140.844 8.28002 140.882 8.42854L141.109 7.50029C141.374 7.79733 141.412 7.94585 141.374 8.53993C142.17 8.72558 141.128 6.79482 142.075 7.53742C141.999 7.61168 142.037 7.7602 141.886 7.90872C142.852 8.31715 143.742 7.31464 144.613 7.7602C144.878 9.17115 143.837 8.09437 144.14 9.28254C145.409 9.02262 146.772 7.61168 148.004 7.94585L147.814 7.79733C147.985 5.82943 148.723 8.76271 149.348 7.83446C149.197 7.98298 149.14 8.91123 149.197 8.72558C150.03 9.05975 150.921 8.24289 152.19 7.61168L152.038 8.1315C152.53 8.57706 153.345 8.39141 153.875 8.61419C154.027 8.09437 154.33 8.16863 154.14 7.42603C155.788 10.3222 157.285 5.86656 158.762 8.28002C158.592 8.28002 158.345 8.72558 158.478 8.72558L159.728 8.24289C159.633 7.42603 159.577 7.7602 159.311 7.09186C159.463 6.57204 159.823 6.20073 160.126 6.20073C159.558 6.75769 160.126 7.57455 160.372 8.05724C160.334 7.79733 160.41 7.50029 160.391 7.24038C161.035 8.76271 160.505 5.53239 161.395 6.53491L161.357 6.98047C161.698 6.75769 162.001 6.1636 162.361 6.27499C162.512 7.27751 162.001 6.72056 161.982 7.53742C162.493 7.46316 162.986 5.64378 163.44 6.6463C163.232 6.90621 162.91 6.94334 162.702 7.20325C163.194 8.35428 163.251 8.05724 163.63 8.24289L163.592 8.20576L164.444 8.72558L164.217 8.46567C164.842 5.86656 165.505 7.98298 166.357 6.31212C165.524 7.90872 166.225 7.24038 166.149 8.35428C166.357 8.65132 166.698 9.02262 166.604 9.31967C167.001 8.42854 167.267 10.0251 167.835 8.72558C167.854 9.09688 168.27 8.76271 168.176 9.65384C168.706 9.3568 168.043 9.02262 168.1 8.57706C168.914 7.35177 169.994 10.0623 171.149 8.39141C172.172 7.68594 172.362 6.46065 173.29 5.82943C173.612 6.42352 173.025 7.16612 173.025 7.16612C173.536 7.68594 173.915 7.61168 174.388 7.20325C174.294 7.53742 174.388 7.79733 174.54 8.20576C174.919 8.09437 174.786 6.86908 175.298 7.42603C175.203 7.83446 175.108 8.46567 174.919 8.8741C175.373 8.53993 175.809 7.87159 176.282 7.53742C176.415 8.16863 175.998 8.5028 175.828 8.91123C176.358 8.61419 177.192 8.35428 177.343 7.35177L177.002 6.98047C177.192 6.94334 177.097 7.83446 176.964 8.02011C176.51 8.79984 176.32 7.68594 176.282 7.31464L176.623 7.09186C176.282 4.97544 175.297 7.42603 174.616 7.31464L174.9 5.75517L174.218 7.05473C174.066 6.6463 173.972 5.7923 174.294 5.56952C173.82 4.78979 173.877 6.12647 173.46 5.27248C173.422 5.12396 173.441 5.0497 173.479 5.01257L173.006 5.45813C173.1 5.12396 172.93 4.38136 173.214 4.60414C172.381 3.71301 171.85 5.75517 171.547 4.60414L171.623 4.49275C170.468 4.93831 171.509 5.56952 170.638 6.86908L170.051 4.08432L169.937 5.23535C169.824 5.19822 169.577 5.12396 169.615 4.64127C169.161 5.421 169.691 5.12396 169.426 5.86656C168.839 4.82692 167.835 6.34925 167.702 4.52988C167.494 5.38387 168.251 5.19822 167.645 5.7923C167.475 3.86153 166.926 6.12647 166.395 5.23535C166.566 4.23284 167.058 4.75266 166.528 3.86153C166.206 5.56952 165.505 3.49023 165.05 3.8244C165.032 5.16109 164.084 4.38136 163.327 4.82692C163.365 4.38136 161.925 4.08432 161.224 3.60162L161.243 3.37884C161.111 4.75266 160.391 4.49275 159.861 4.75266C159.88 3.9358 159.974 3.60162 160.258 3.26745H159.766C159.671 3.71301 159.52 3.9358 159.198 4.12145L159.33 3.11893C158.667 3.19319 158.004 4.3071 157.171 3.63875C157.114 4.60414 157.834 6.27499 156.944 6.90621C156.906 6.38638 156.887 5.49526 157.114 5.30961C157.038 5.38387 156.849 5.71804 156.698 5.53239L157.057 4.6784C156.679 4.3071 156.849 5.38387 156.546 5.30961C156.546 4.56701 156.319 4.78979 156.357 4.19571C156.432 4.12145 156.622 4.49275 156.735 4.19571C156.394 4.04719 155.978 3.63875 155.826 3.0818C155.864 3.49023 155.826 4.08432 155.58 4.15858C154.917 4.19571 155.353 3.26745 154.974 2.89615C154.822 3.41597 154.406 2.85902 154.387 3.97293C154.197 3.97293 154.159 3.4531 154.084 3.15606C153.743 3.63875 152.493 3.30458 152.89 4.45562L152.985 4.52988C152.966 4.56701 152.947 4.56701 152.928 4.56701C151.811 5.64378 150.617 3.9358 149.519 4.41849V4.04719C148.856 4.45562 148.06 4.3071 147.587 5.08683C147.397 5.08683 147.132 4.41849 147.208 3.97293C146.697 4.23284 146.64 4.6784 145.92 4.04719C146.432 3.41597 145.75 3.49023 146.432 3.56449C145.769 3.30458 145.636 2.7105 144.935 3.71301C145.181 2.78476 144.443 2.52485 144.14 2.82189L144.594 3.49023C144.253 3.63875 143.931 3.52736 143.628 3.4531L143.799 2.22781C142.454 0.742603 141.393 4.78979 140.37 2.26494C140.011 3.11893 141.09 2.85902 140.787 3.89866C140.143 3.71301 139.518 1.93077 139.31 1.93077C138.476 1.26242 138.533 3.75014 137.643 3.26745C137.757 3.71301 137.87 4.90118 137.207 5.30961C136.601 5.16109 136.45 3.4531 136.847 3.11893C136.999 3.0818 137.075 3.23032 137.056 3.37884C137.245 3.23032 137.51 3.04467 137.264 2.56198L137.188 2.97041C136.885 2.52485 136.033 2.56198 136.241 1.85651C135.768 2.26494 136.052 2.56198 136.393 2.82189C135.597 2.19068 135.162 2.78476 134.347 2.37633C134.48 2.63624 134.593 3.11893 134.461 3.11893C133.268 2.56198 133.931 3.97293 133.135 4.15858C132.68 3.49023 133.305 2.56198 132.491 3.11893C131.999 2.67337 132.377 1.9679 132.586 1.5966C131.847 2.45059 131.203 1.03964 130.786 0.891123L131.184 0.519822C130.957 0.742603 130.767 0.742603 130.559 0.705473L130.786 1.5966C130.559 1.44808 130.37 1.44808 130.37 1.07677C130.142 1.67086 130.559 2.52485 130.086 3.34171C129.782 2.89615 129.157 3.8244 129.044 2.63624C130.01 3.04467 128.93 1.44808 129.745 1.26242C129.593 1.41095 129.404 1.41095 129.157 1.22529C129.12 1.07677 129.195 0.965384 129.252 0.928254C128.324 -0.11139 128.835 2.26494 127.869 2.22781C127.983 1.55947 127.642 0.965384 127.491 1.1139C127.869 1.1139 127.68 2.22781 127.32 2.7105C126.714 2.19068 126.657 3.0818 126.335 3.04467L126.695 3.30458C126.562 3.97293 126.259 3.86154 125.843 4.08432C125.805 3.56449 126.222 3.71301 126.07 3.49023C125.615 4.64127 125.009 2.26494 124.346 3.04467C124.043 2.59911 124.309 1.81938 124.043 1.48521C123.305 2.3392 123.248 0.594082 122.471 1.29955C122.699 2.19068 122.736 1.9679 122.187 2.82189L123.456 2.19068L122.642 3.49023C123.021 3.49023 123.456 2.93328 123.683 3.0818C123.286 3.78727 123.343 3.60162 123.513 4.3071C122.983 2.97041 122.471 5.08683 121.865 4.19571L121.884 2.00503C120.975 1.03964 120.255 3.11893 119.062 2.56198L119.441 2.93328C119.289 3.78727 118.702 3.04467 118.323 3.41597C118.361 2.67337 118.115 2.41346 117.963 1.9679C117.982 2.52485 117.092 1.93077 116.978 3.37884L116.448 2.41346C115.482 2.00503 115.349 4.49275 114.421 4.26997C114.705 3.49023 114.289 2.97041 114.895 2.37633C114.592 2.37633 114.308 2.22781 114.308 2.74763C114.118 2.30207 113.455 3.75014 113.171 3.04467C113.039 3.37884 113.001 4.12145 112.66 4.08432C112.622 3.9358 112.66 3.71301 112.66 3.71301C112.66 4.08432 112.111 4.19571 112.414 5.01257C111.467 2.7105 109.762 5.16109 108.928 3.23032C108.285 3.49023 107.47 3.71301 106.864 3.78727C106.902 3.56449 106.864 3.41597 106.978 3.49023C106.144 2.78476 106.466 5.56952 105.5 4.82692C105.008 3.63875 106.012 4.19571 105.709 3.75014C105.576 1.33669 104.553 4.08432 103.909 2.67337L104.061 2.52485C103.568 1.70799 102.848 3.4531 102.053 3.26745C102.053 3.26745 102.091 3.04467 102.053 2.89615C101.504 4.12145 100.462 4.52988 99.6853 4.86405C99.9316 3.93579 100.045 4.38136 99.8937 3.41597C99.5527 3.56449 99.9884 4.93831 99.3065 5.23535C99.0792 4.71553 98.5867 4.26997 98.511 3.23032L99.1739 3.19319C98.833 1.85651 98.3216 3.23032 97.9806 3.00754L98.0185 2.41346C97.0147 2.59911 96.9957 4.04719 95.9161 3.97293L96.0297 4.41849C95.4426 5.86656 95.5373 3.60162 94.9501 4.6784L94.7796 3.23032C94.3819 3.60162 93.4159 4.64127 92.7151 4.93831C93.1128 3.86154 93.9273 3.30458 94.4387 2.63624C94.0599 2.63624 93.1318 2.74763 92.9234 3.4531C93.0749 3.30458 93.2833 2.97041 93.4348 3.19319C92.9613 4.34423 92.3363 4.90118 91.5786 4.90118C91.7112 2.04216 89.5709 4.19571 89.0216 1.9679C87.6578 3.00754 86.332 1.52234 84.7409 1.67086C85.3092 3.89867 84.2864 1.74512 84.3811 4.01006C84.0212 4.15858 83.8697 4.12145 83.8318 3.97293L82.7143 2.59911C82.4491 1.93077 83.0552 2.11642 83.0363 1.5966C82.2218 1.37382 82.6953 0.594082 82.146 0C82.2597 0.816863 81.8619 1.15103 81.4073 0.853993L82.0513 1.89364C80.9149 3.11893 81.0853 0 79.9489 1.18816L80.3088 0.482692C79.7216 0.891123 78.1495 0.482692 77.5813 2.30207C77.4866 2.04216 77.335 1.41095 77.6002 1.26242C76.1986 1.00251 74.4939 3.19319 73.4143 2.07929L73.5279 1.52234C73.2627 1.67086 73.0733 2.56198 72.7513 2.00503C72.7703 1.78225 72.865 1.44808 72.7324 1.41095C72.5998 1.5966 72.0505 2.37633 71.6906 2.04216L71.9937 1.41095C70.6299 0.668343 69.9102 2.93328 68.7737 3.30458C68.7737 1.67086 67.7131 1.15103 67.1827 0.891123L67.2016 0.668343C65.6106 0.482692 64.512 2.00503 63.0536 2.67337C62.1444 0.891124 59.9662 1.93077 58.5078 0.928254C58.7351 1.22529 58.4699 2.19068 58.2047 2.37633C57.8638 2.04216 57.2577 3.52736 57.3145 2.00503L57.4281 2.04216C57.163 0.556952 56.4621 0.965384 55.9128 0.928254L55.8181 2.89615C54.3786 0 52.0489 3.89866 51.2534 1.37382C50.9124 1.85651 50.4768 1.85651 50.1359 2.3392L50.1548 1.29955C49.1888 1.03964 48.7153 0.891123 47.522 1.15103L47.7683 0.408432C47.1053 0.334171 46.9159 3.4531 46.3098 3.49023L46.1204 1.93077C44.9461 1.9679 43.7717 0.594082 42.5974 2.00503C42.6163 1.78225 42.6542 1.33669 42.8436 1.26242C42.2943 1.22529 40.7033 0.185651 40.9116 2.3392C40.8927 0.928254 39.6994 2.19068 39.0744 2.82189L39.1691 1.78225C38.6387 3.11893 38.6198 3.4531 37.8811 3.8244C37.7106 3.67588 37.7296 3.00754 37.9569 3.26745C37.3697 2.7105 37.5023 4.23284 36.7825 3.71301L37.0477 3.04467C36.4416 2.97041 36.4984 3.30458 36.1575 4.08432C35.7786 4.49275 35.0021 3.8244 34.9263 2.89615C34.8505 3.4531 34.5096 4.23284 34.1497 3.97293C34.0929 3.56449 34.2255 3.34171 34.2823 3.26745C33.2784 2.56198 32.767 4.45562 32.0852 3.4531C32.0662 3.11893 32.0283 2.93328 31.9715 2.82189C32.767 2.85902 33.43 2.89615 33.3542 2.97041C33.3542 2.00503 32.7102 1.85651 33.2216 0.519822C32.6913 1.22529 31.8011 2.78476 31.176 2.3392C31.1381 2.26494 31.1192 2.15355 31.1002 2.00503L31.1571 1.89364C31.0055 1.78225 30.8729 1.89364 30.7593 2.04216C30.551 1.89364 30.4373 1.78225 30.229 1.74512C30.1532 0.965384 29.4903 1.33669 29.1683 1.26242C29.1872 2.30207 28.7705 2.15355 29.1683 3.00754C29.1114 2.93328 29.2251 2.89615 29.4524 2.82189C29.5092 2.78476 29.566 2.78476 29.585 2.7105C29.585 2.74763 29.566 2.78476 29.566 2.78476C29.7744 2.74763 30.0585 2.74763 30.3805 2.7105C30.1153 3.23032 29.8501 3.67588 29.4903 3.11893C29.3198 3.78727 29.1493 4.49275 29.0357 4.78979C28.6 3.34171 27.7288 2.56198 27.6151 1.63373C26.6302 2.22781 25.2854 2.00503 24.6603 3.97293C24.3762 4.23284 24.3383 3.41597 24.2247 3.11893C24.3952 2.93328 24.5846 2.97041 24.6603 2.67337C24.0921 3.19319 22.9935 2.85902 22.8609 4.23284C22.1601 3.60162 23.2587 2.97041 22.2927 3.19319L22.4253 2.78476C20.5123 0.594082 19.3 6.27499 17.1787 3.4531C17.3302 3.75014 17.406 3.8244 17.4438 4.08432C15.0194 2.85902 12.4434 5.23535 10.0569 3.26745C9.375 2.85902 9.29923 3.75014 8.88253 4.41849L8.73101 3.30458L8.03019 4.56701C7.02632 5.53239 6.28763 1.81938 5.01858 3.63875L5.18905 4.38136C4.71553 4.23284 3.7306 4.82692 3.80637 3.9358C3.76848 4.08432 3.65484 4.75266 3.48437 4.34423L3.46543 3.75014L2.34791 4.75266C1.47663 4.34423 2.4805 2.41346 1.21146 2.30207C0.737935 2.56198 -0.133347 4.04719 0.0371213 4.41849C0.226531 4.45562 0.529585 4.78979 0.529585 5.38387L0.111988 5.68091C0.0362245 7.42603 -0.303815 9.17115 0.756876 10.3964L1.49557 9.3568L1.7418 10.2108H1.11675C1.47663 10.9905 1.68498 10.285 1.95015 9.83949C2.00698 10.285 2.12062 10.5821 2.25321 10.7677L2.97296 9.13402C3.06767 9.76523 2.65097 10.4336 3.14343 10.8049C3.48437 10.0251 2.82144 9.28254 3.37072 8.79984C3.7306 9.57958 3.61696 10.2108 4.03366 9.54245C4.09048 9.98801 3.99577 10.285 3.84425 10.4707C4.22307 9.95088 4.82918 10.2479 5.01858 9.31967C5.37846 10.285 6.26869 9.05976 6.2308 10.6935C6.34445 10.2851 6.87479 9.39393 7.21573 9.3568C6.59068 11.3247 8.48477 9.46819 8.31431 11.5846C8.76889 9.83949 9.96216 10.8049 10.7766 9.83949C10.7387 9.95088 10.663 10.2479 10.5872 10.1737C11.0418 10.285 11.1744 10.842 11.4585 11.1762C11.5153 9.7281 12.2351 9.39393 12.6139 8.5028C13.1821 9.91375 12.273 10.2108 12.4434 11.5475C12.4245 10.3593 13.4284 10.3593 13.2389 9.39393C13.6746 10.2479 13.6178 9.80236 13.8261 11.0277C13.9019 9.20828 14.2239 10.7306 14.5838 9.61671C15.2088 10.5078 14.7353 11.3247 15.4172 10.7677C15.7581 11.2876 15.152 11.9188 15.152 11.9188ZM31.3465 8.79984C31.2139 8.83697 31.0813 8.8741 31.0055 8.8741C31.0813 8.83698 31.176 8.83697 31.3465 8.79984ZM32.7102 8.76271C32.5397 8.72558 32.3314 8.72558 32.123 8.72558C32.0662 8.35428 32.1231 7.98298 32.2556 8.02011C32.1799 8.24289 32.5019 8.46567 32.7102 8.76271ZM29.8312 1.52234C30.0395 1.37382 30.1153 1.5966 30.1532 1.78225C30.0585 1.78225 29.9259 1.81938 29.7744 1.89364C29.7744 1.93077 29.7554 1.9679 29.7554 2.00503C29.7554 1.85651 29.7933 1.67086 29.8312 1.52234Z" fill="#81F297"/>
<path d="M29.4332 2.89615C29.4142 2.93328 29.3953 2.97041 29.3574 2.97041C29.3953 3.04467 29.4521 3.15606 29.49 3.19319C29.5089 3.0818 29.5468 2.97041 29.5658 2.85902C29.5089 2.89615 29.4711 2.89615 29.4332 2.89615Z" fill="#81F297"/>
<path d="M152.89 4.45562L152.851 4.41849C152.87 4.45562 152.891 4.49275 152.91 4.56701C152.891 4.52988 152.89 4.49275 152.89 4.45562Z" fill="#81F297"/>
<path d="M51.5175 10.7677L51.5186 10.5078L51.3857 10.7306L51.5175 10.7677Z" fill="#81F297"/>
<path d="M160.391 8.02011C160.41 8.09437 160.428 8.20576 160.485 8.28002C160.485 8.24289 160.428 8.1315 160.391 8.02011Z" fill="#81F297"/>
<path d="M163.63 8.28002L164.084 8.65132C163.876 8.42854 163.743 8.31715 163.63 8.28002Z" fill="#81F297"/>
<path d="M166.111 8.79984C166.149 8.61419 166.149 8.46567 166.168 8.35428L166.111 8.79984Z" fill="#81F297"/>
<path d="M126.505 10.0251C126.468 10.0251 126.43 10.0623 126.411 10.0623C126.183 10.2479 126.335 10.1737 126.505 10.0251Z" fill="#81F297"/>
<path d="M138.287 7.57455C138.154 7.7602 138.04 7.94585 137.908 8.05724C138.116 8.1315 138.287 8.16863 138.287 7.57455Z" fill="#81F297"/>
<path d="M113.341 11.2876C113.341 11.2504 113.341 11.2504 113.341 11.2876C113.322 11.2876 113.285 11.2876 113.266 11.2876H113.341Z" fill="#81F297"/>
<path d="M137.359 8.05724C137.567 8.28002 137.737 8.20576 137.908 8.05724C137.737 7.98298 137.548 7.90872 137.359 8.05724Z" fill="#81F297"/>
<path d="M176.907 9.24541L177.02 9.28254C177.02 9.20828 177.02 9.17115 177.039 9.09688L176.907 9.24541Z" fill="#81F297"/>
<path d="M177.04 9.13402L177.172 9.02262C177.115 9.02262 177.059 9.02262 177.04 9.13402Z" fill="#81F297"/>
<path d="M177.456 8.76271L177.172 9.02262C177.266 9.02262 177.4 9.05975 177.456 8.76271Z" fill="#81F297"/>
<path d="M173.612 8.76271L173.574 9.13401C173.593 9.09688 173.612 8.94836 173.612 8.76271Z" fill="#81F297"/>
<path d="M172.608 8.8741C172.854 8.94837 173.214 9.69097 173.536 9.43106L173.574 9.13401C173.422 9.7281 172.835 8.24289 172.608 8.8741Z" fill="#81F297"/>
<path d="M168.422 4.19571L169.255 4.49275C169.104 4.08432 168.914 3.56449 169.293 3.4531C168.251 2.26494 169.52 4.38136 168.422 4.19571Z" fill="#81F297"/>
<path d="M165.827 3.63875C166.281 3.4531 165.827 3.04467 165.846 2.82189C165.562 3.19319 165.486 3.26745 165.827 3.63875Z" fill="#81F297"/>
<path d="M146.999 3.63875L147.037 2.67337C146.698 2.82189 147.055 3.04467 146.999 3.63875Z" fill="#81F297"/>
<path d="M143.42 8.53993L143.742 9.13402L143.912 8.24289L143.42 8.53993Z" fill="#81F297"/>
<path d="M141.279 1.78225L141.431 1.63373L140.863 1.9679L141.279 1.78225Z" fill="#81F297"/>
<path d="M109.686 2.11642L109.8 3.30458C110.027 3.04467 110.084 1.74512 109.686 2.11642Z" fill="#81F297"/>
<path d="M96.0484 3.30458C95.8969 2.7105 95.5181 2.3392 95.2718 2.93328C95.5749 2.97041 95.8969 3.4531 96.0484 3.30458Z" fill="#81F297"/>
<path d="M55.136 1.37382L55.4012 1.00251L54.8898 1.33669L55.136 1.37382Z" fill="#81F297"/>
</svg>
