<svg width="587" height="12" viewBox="0 0 587 12" fill="none" xmlns="http://www.w3.org/2000/svg">
<path d="M586.859 8.46567C587.168 8.16863 586.982 7.42603 586.179 7.57455L585.562 8.79984L586.859 8.46567Z" fill="#81F297"/>
<path d="M581.176 6.20073C580.188 6.79482 579.014 7.83446 579.694 8.98549C580.682 7.79733 580.929 8.28002 581.979 6.90621C582.844 6.75769 583.462 7.31464 583.338 7.7602C583.647 7.46316 584.635 8.02011 585.129 7.24038C584.018 6.27499 582.597 6.23786 581.176 7.05473C580.805 6.75769 581.053 6.42351 581.176 6.20073Z" fill="#81F297"/>
<path d="M497.912 4.26997L498.468 4.41849C498.344 4.34423 498.159 4.3071 497.912 4.26997Z" fill="#81F297"/>
<path d="M446.397 3.60162C446.768 3.56449 446.953 3.4531 446.953 3.34171C446.582 3.41597 446.274 3.49023 446.397 3.60162Z" fill="#81F297"/>
<path d="M437.564 2.26494C437.749 2.30207 437.935 2.3392 438.058 2.3392C437.873 2.22781 437.688 2.15355 437.564 2.26494Z" fill="#81F297"/>
<path d="M497.912 4.26997L496.553 3.89866C496.491 4.3071 497.294 4.19571 497.912 4.26997Z" fill="#81F297"/>
<path d="M569.687 9.17115C569.996 9.09689 570.243 8.9855 570.428 8.83698C570.181 8.87411 569.934 8.94837 569.749 8.94837C569.687 9.02262 569.687 9.09689 569.687 9.17115Z" fill="#81F297"/>
<path d="M520.643 3.30458H521.075C521.199 3.15606 521.322 3.00754 521.446 2.82189L520.643 3.30458Z" fill="#81F297"/>
<path d="M538.123 3.0818C537.753 3.04467 537.568 4.08432 537.444 4.52988C537.691 4.08432 537.938 3.89867 538.309 3.8244C538.309 3.63875 538.247 3.41597 538.123 3.0818Z" fill="#81F297"/>
<path d="M565.796 4.93831L566.29 4.78979C566.105 4.82692 565.919 4.86405 565.796 4.93831Z" fill="#81F297"/>
<path d="M508.166 3.04467C508.166 2.89615 508.104 2.74763 507.98 2.67337C508.042 2.82189 508.104 2.93328 508.166 3.04467Z" fill="#81F297"/>
<path d="M20.3176 10.9163C20.3176 10.842 20.3176 10.8049 20.3176 10.7306C20.1941 10.842 20.1323 10.9163 20.3176 10.9163Z" fill="#81F297"/>
<path d="M0.0575109 5.75517L0.366354 5.68091C0.366354 5.49526 0.428122 5.27248 0.428122 5.08683L0.0575109 5.75517Z" fill="#81F297"/>
<path d="M421.443 0.928254C421.504 0.928254 421.504 0.928253 421.504 0.965384C421.937 0.816863 421.69 0.853993 421.443 0.928254Z" fill="#81F297"/>
<path d="M273.569 1.67086C275.236 2.59911 270.851 2.85902 273.383 3.89866C273.136 3.52736 275.669 2.30207 273.569 1.67086Z" fill="#81F297"/>
<path d="M569.255 9.02262C569.008 9.02262 568.761 9.05976 568.514 9.02262C568.822 9.05976 569.07 9.05976 569.255 9.02262Z" fill="#81F297"/>
<path d="M273.383 3.9358L273.63 4.04719C273.507 3.97293 273.445 3.97293 273.383 3.9358Z" fill="#81F297"/>
<path d="M384.32 1.55947C384.382 1.74512 384.567 1.89364 384.69 2.00503C384.69 1.89364 384.629 1.78225 384.32 1.55947Z" fill="#81F297"/>
<path d="M411.992 3.04467L411.313 2.89615C411.56 2.97041 411.807 3.00754 411.992 3.04467Z" fill="#81F297"/>
<path d="M369.99 3.00754C369.619 2.93328 369.495 2.78476 369.001 2.93328C369.063 2.97041 369.125 3.00754 369.125 3.04467C369.31 2.93328 369.557 2.85902 369.99 3.00754Z" fill="#81F297"/>
<path d="M355.041 3.00754C355.103 3.0818 355.227 3.15606 355.289 3.23032C355.412 3.19319 355.597 3.19319 355.783 3.15606L355.041 3.00754Z" fill="#81F297"/>
<path d="M65.7175 10.3964C65.4087 10.0994 65.1616 9.76523 65.038 9.46819C65.2851 10.2108 63.0615 10.4707 65.7175 10.3964Z" fill="#81F297"/>
<path d="M569.687 8.57706C569.625 8.83697 569.502 8.98549 569.255 9.02262C569.44 9.02262 569.564 8.9855 569.749 8.94837C569.749 8.79984 569.749 8.68845 569.687 8.57706Z" fill="#81F297"/>
<path d="M369.372 11.2504L367.025 11.1019C367.642 11.2133 368.507 11.2504 369.372 11.2504Z" fill="#81F297"/>
<path d="M172.948 10.2479L172.392 10.3964C172.577 10.3964 172.762 10.3593 172.948 10.2479Z" fill="#81F297"/>
<path d="M359.983 11.2504C359.551 10.8791 359.118 10.6564 358.624 10.545C358.5 10.6192 358.439 10.6935 358.377 10.8049L359.983 11.2504Z" fill="#81F297"/>
<path d="M49.4106 11.9188C51.696 11.9559 50.4606 10.5821 50.9548 9.80236C53.6726 9.43106 52.1901 10.8049 53.1167 11.5103C54.7844 11.139 56.0816 9.87662 57.3169 9.95088C57.4405 10.1737 57.6875 10.2479 57.3787 10.545C59.17 9.46819 62.6908 10.5078 64.7292 9.13402C64.9145 9.24541 64.9762 9.3568 64.9762 9.46819C64.6674 8.79984 64.6056 8.09437 64.6674 7.57455C65.6557 7.53742 66.5205 6.72056 66.9528 7.61168C66.3351 7.57455 66.2734 7.94585 65.9645 8.24289L67.0146 7.83446C67.9411 9.13402 65.5939 8.28002 65.5939 9.24541C67.694 8.83697 70.103 7.7602 71.6472 8.1315C71.9561 9.39393 67.9411 8.53993 70.0413 9.69097L67.5705 9.20828C69.4236 11.2133 66.0881 9.05976 67.8176 11.2133C71.0295 11.5846 71.4619 10.5821 74.6739 10.9534C75.4151 10.2479 74.4268 9.91375 75.1681 9.20828C79.7389 7.94585 78.7506 12.3643 82.1479 10.6935C83.0127 9.83949 83.3833 8.24289 85.7305 9.09688L84.9275 10.5078C88.0777 10.6564 86.7188 8.46567 89.9925 9.43106C89.4366 9.98801 87.5218 9.91375 88.0159 10.0623C90.1778 11.139 89.5601 9.20828 91.1661 9.20828L91.475 10.4707C94.8105 10.285 98.4548 9.3568 102.161 9.13402C101.976 9.50532 101.296 9.91375 102.161 10.285C106.794 9.65384 112.106 10.4336 116.615 11.1762L118.344 10.0994C118.715 10.0994 119.085 10.5821 118.653 10.8049C120.383 11.2133 118.715 10.0994 119.58 9.69097C120.568 9.61671 120.877 10.3222 120.259 10.6564C123.348 9.7281 129.03 8.65132 132.304 9.83949L131.686 10.1737C134.219 10.6192 134.528 7.94585 136.875 8.94837L136.504 9.13402C142.002 9.61671 148.055 8.61419 152.255 10.2479C153.058 8.68845 157.691 10.9534 158.061 8.76271C161.212 9.83949 160.285 10.2479 164.732 10.9534C165.906 11.0648 166.462 9.57958 167.944 9.3568L168.006 10.5078L169.983 9.31967L171.033 10.6935L172.392 10.3964C171.836 10.3222 171.218 9.87662 171.342 9.54245C173.504 9.02262 176.53 10.3222 176.592 10.9163L181.657 9.95088C181.534 10.3964 180.669 10.5821 180.051 10.8791C182.769 9.7281 180.545 12.0673 183.016 11.0277C182.707 10.7677 183.201 10.3593 183.263 10.0994C184.498 10.8049 187.278 10.8049 189.378 10.5078L189.008 11.2876C192.775 11.4732 196.914 10.9163 201.114 10.9163C199.632 10.545 199.941 9.17115 201.176 9.05976L201.67 10.285C202.473 9.54245 200.373 9.83949 202.041 8.91123C203.585 9.05976 203.091 10.285 202.226 10.6935L204.141 10.285C204.264 10.6564 203.832 10.842 203.708 11.2876C204.511 10.545 206.982 12.5129 208.156 11.2133L208.279 11.5846C212.48 11.5846 214.394 11.1762 217.853 11.1019C217.915 10.0623 219.274 10.285 220.262 9.43106C222.795 9.76523 225.574 10.5821 228.601 10.5078C230.763 9.98801 229.219 9.61671 230.207 8.98549C230.392 9.95088 233.419 9.83949 231.813 10.545C235.457 10.3964 236.446 10.3593 241.078 9.57958C240.584 9.17115 240.028 9.02262 240.337 8.68845C241.202 8.53993 242.252 9.09688 242.128 9.54245L241.881 9.65384C247.07 8.24289 253.803 12.4386 257.941 10.4336L257.571 10.5078L261.833 9.46819C263.809 9.61671 260.659 10.1737 262.08 10.7677C266.712 9.17115 269.368 10.9905 273.136 9.95088C276.101 12.7728 283.575 9.76523 287.528 11.5475L287.281 10.8791C288.331 10.2479 288.517 11.2504 289.258 11.399C289.134 10.8791 288.146 10.8049 288.764 10.4336C297.473 9.65384 306.677 11.399 315.571 11.993C318.845 12.1787 317.424 8.57706 321.501 10.1365L320.327 11.3618C326.875 9.87662 333.793 11.399 340.217 10.1737C339.846 10.4707 339.846 10.842 339.167 10.8049C340.526 11.696 344.17 10.842 344.232 10.1365C345.22 10.2108 344.479 10.8049 345.097 11.1762C346.456 11.696 348.494 10.0251 349.235 10.9163C349.359 11.0648 348.865 11.2133 348.617 11.2876C349.668 10.8791 352.941 11.399 352.077 10.3964C354.485 10.8791 356.709 9.95088 358.624 10.545C359.859 9.39393 362.762 11.1019 363.133 9.46819C362.948 11.139 367.395 10.8049 368.939 10.0251C368.445 10.545 370.236 10.545 369.681 11.2504C371.41 11.2133 373.016 10.9163 372.707 10.0623C375.919 12.0673 379.131 8.42854 380.984 11.0277C386.173 10.1365 390.929 9.50532 395.623 9.13402C395.438 10.8049 390.497 9.28254 390.682 11.0648C395.129 10.3593 397.662 8.94836 402.047 9.3568C403.159 9.57958 401.43 10.0994 400.997 10.3593C405.383 9.65384 409.521 10.5078 413.474 9.61671C413.474 9.76523 413.042 9.95088 412.61 10.0623C413.413 10.0251 414.401 10.3222 414.339 9.54245L413.598 9.76523C412.363 8.65132 416.686 7.46316 416.81 6.86908C415.513 9.05976 420.701 7.42603 418.601 10.1737C419.095 10.0251 419.775 9.65384 419.651 9.17115C420.393 9.31967 420.64 9.61671 419.898 10.2108C422.678 9.80236 421.69 8.98549 424.222 8.98549C424.222 9.3568 423.728 9.50532 423.419 9.91375C424.716 9.20828 425.952 8.46567 428.114 8.79984C427.99 9.02262 428.237 9.31967 427.619 9.31967C431.264 9.20828 433.858 7.3889 437.811 8.09437C436.638 9.69097 439.17 8.61419 439.355 10.0251L441.517 9.61671L440.653 8.94837C442.506 8.98549 444.173 7.94585 445.841 8.42854L444.297 8.91123L447.818 8.65132L445.841 8.1315C447.756 7.42603 445.656 6.38638 448.127 6.75769C447.632 6.90621 450.041 6.75769 450.968 7.57455C451.894 7.12899 452.883 6.68343 454.242 7.0176C454.612 7.46316 453.933 8.53993 454.18 8.83698C455.106 7.68594 458.565 8.5028 459.739 7.27751C459.368 7.57455 459.307 8.28002 459.43 8.42854L460.171 7.50029C461.036 7.79733 461.16 7.94585 461.036 8.53993C463.63 8.72558 460.233 6.79482 463.322 7.53742C463.075 7.61168 463.198 7.7602 462.704 7.90872C465.854 8.31715 468.757 7.31464 471.599 7.7602C472.463 9.17115 469.066 8.09437 470.054 9.28254C474.193 9.02262 478.64 7.61168 482.655 7.94585L482.038 7.79733C482.593 5.82943 485.002 8.76271 487.041 7.83446C486.547 7.98298 486.361 8.91123 486.547 8.72558C489.264 9.05976 492.168 8.24289 496.306 7.61168L495.812 8.1315C497.418 8.57706 500.074 8.39141 501.803 8.61419C502.298 8.09437 503.286 8.16863 502.668 7.42603C508.042 10.3222 512.922 5.86656 517.74 8.28002C517.184 8.28002 516.381 8.72558 516.813 8.72558L520.89 8.24289C520.581 7.42603 520.396 7.7602 519.531 7.09186C520.025 6.57204 521.199 6.20073 522.187 6.20073C520.334 6.75769 522.187 7.57455 522.99 8.05724C522.867 7.79733 523.114 7.50029 523.052 7.24038C525.152 8.76271 523.422 5.53239 526.326 6.53491L526.202 6.98047C527.314 6.75769 528.302 6.1636 529.476 6.27499C529.97 7.27751 528.302 6.72056 528.24 7.53742C529.908 7.46316 531.514 5.64378 532.997 6.6463C532.317 6.90621 531.267 6.94334 530.588 7.20325C532.194 8.35428 532.379 8.05724 533.614 8.24289L533.491 8.20576L536.27 8.72558L535.529 8.46567C537.567 5.86656 539.729 7.98298 542.509 6.31212C539.791 7.90872 542.077 7.24038 541.829 8.35428C542.509 8.65132 543.621 9.02262 543.312 9.31967C544.609 8.42854 545.474 10.0251 547.327 8.72558C547.389 9.09688 548.748 8.76271 548.439 9.65384C550.168 9.3568 548.006 9.02262 548.192 8.57706C550.848 7.35177 554.369 10.0623 558.136 8.39141C561.472 7.68594 562.09 6.46065 565.116 5.82943C566.166 6.42351 564.252 7.16612 564.252 7.16612C565.919 7.68594 567.155 7.61168 568.699 7.20325C568.39 7.53742 568.699 7.79733 569.193 8.20576C570.428 8.09437 569.996 6.86908 571.664 7.42603C571.355 7.83446 571.046 8.46567 570.428 8.8741C571.911 8.53993 573.331 7.87159 574.876 7.53742C575.308 8.16863 573.949 8.5028 573.393 8.91123C575.123 8.61419 577.841 8.35428 578.335 7.35177L577.223 6.98047C577.841 6.94334 577.532 7.83446 577.099 8.02011C575.617 8.79984 574.999 7.68594 574.876 7.31464L575.987 7.09186C574.876 4.97544 571.664 7.42603 569.44 7.31464L570.367 5.75517L568.143 7.05473C567.649 6.6463 567.34 5.7923 568.39 5.56952C566.846 4.78979 567.031 6.12647 565.672 5.27248C565.549 5.12396 565.61 5.0497 565.734 5.01257L564.19 5.45813C564.499 5.12396 563.943 4.38136 564.869 4.60414C562.151 3.71301 560.422 5.75517 559.434 4.60414L559.681 4.49275C555.913 4.93831 559.31 5.56952 556.469 6.86908L554.554 4.08432L554.183 5.23535C553.813 5.19822 553.01 5.12396 553.133 4.64127C551.651 5.421 553.38 5.12396 552.516 5.86656C550.601 4.82692 547.327 6.34925 546.895 4.52988C546.215 5.38387 548.686 5.19822 546.709 5.7923C546.153 3.86153 544.362 6.12647 542.633 5.23535C543.188 4.23284 544.794 4.75266 543.065 3.86153C542.015 5.56952 539.729 3.49023 538.247 3.8244C538.185 5.16109 535.097 4.38136 532.626 4.82692C532.75 4.38136 528.055 4.08432 525.77 3.60162L525.831 3.37884C525.399 4.75266 523.052 4.49275 521.322 4.75266C521.384 3.9358 521.693 3.60162 522.619 3.26745H521.013C520.705 3.71301 520.211 3.9358 519.16 4.12145L519.593 3.11893C517.431 3.19319 515.269 4.3071 512.551 3.63875C512.366 4.60414 514.713 6.27499 511.81 6.90621C511.686 6.38638 511.625 5.49526 512.366 5.30961C512.119 5.38387 511.501 5.71804 511.007 5.53239L512.181 4.6784C510.945 4.3071 511.501 5.38387 510.513 5.30961C510.513 4.56701 509.772 4.78979 509.895 4.19571C510.142 4.12145 510.76 4.49275 511.131 4.19571C510.019 4.04719 508.66 3.63875 508.166 3.0818C508.289 3.49023 508.166 4.08432 507.363 4.15858C505.201 4.19571 506.621 3.26745 505.386 2.89615C504.892 3.41597 503.533 2.85902 503.471 3.97293C502.854 3.97293 502.73 3.4531 502.483 3.15606C501.371 3.63875 497.294 3.30458 498.592 4.45562L498.9 4.52988C498.839 4.56701 498.777 4.56701 498.715 4.56701C495.071 5.64378 491.179 3.9358 487.597 4.41849V4.04719C485.435 4.45562 482.841 4.3071 481.296 5.08683C480.679 5.08683 479.814 4.41849 480.061 3.97293C478.393 4.23284 478.208 4.6784 475.861 4.04719C477.528 3.41597 475.305 3.49023 477.528 3.56449C475.367 3.30458 474.934 2.7105 472.649 3.71301C473.452 2.78476 471.043 2.52485 470.054 2.82189L471.537 3.49023C470.425 3.63875 469.375 3.52736 468.387 3.4531L468.943 2.22781C464.557 0.742603 461.098 4.78979 457.762 2.26494C456.589 3.11893 460.11 2.85902 459.121 3.89866C457.021 3.71301 454.983 1.93077 454.303 1.93077C451.586 1.26242 451.771 3.75014 448.868 3.26745C449.238 3.71301 449.609 4.90118 447.447 5.30961C445.471 5.16109 444.976 3.4531 446.274 3.11893C446.768 3.0818 447.015 3.23032 446.953 3.37884C447.571 3.23032 448.435 3.04467 447.632 2.56198L447.385 2.97041C446.397 2.52485 443.617 2.56198 444.297 1.85651C442.753 2.26494 443.679 2.56198 444.791 2.82189C442.197 2.19068 440.776 2.78476 438.12 2.37633C438.552 2.63624 438.923 3.11893 438.491 3.11893C434.599 2.56198 436.761 3.97293 434.167 4.15858C432.684 3.49023 434.723 2.56198 432.067 3.11893C430.461 2.67337 431.696 1.9679 432.376 1.5966C429.967 2.45059 427.867 1.03964 426.508 0.891123L427.805 0.519822C427.064 0.742603 426.446 0.742603 425.766 0.705473L426.508 1.5966C425.766 1.44808 425.149 1.44808 425.149 1.07677C424.407 1.67086 425.766 2.52485 424.222 3.34171C423.234 2.89615 421.195 3.8244 420.825 2.63624C423.975 3.04467 420.454 1.44808 423.11 1.26242C422.616 1.41095 421.999 1.41095 421.196 1.22529C421.072 1.07677 421.319 0.965384 421.504 0.928254C418.478 -0.11139 420.145 2.26494 416.995 2.22781C417.366 1.55947 416.254 0.965384 415.76 1.1139C416.995 1.1139 416.378 2.22781 415.204 2.7105C413.227 2.19068 413.042 3.0818 411.992 3.04467L413.166 3.30458C412.733 3.97293 411.745 3.86154 410.386 4.08432C410.262 3.56449 411.621 3.71301 411.127 3.49023C409.645 4.64127 407.668 2.26494 405.506 3.04467C404.518 2.59911 405.383 1.81938 404.518 1.48521C402.109 2.3392 401.924 0.594082 399.391 1.29955C400.132 2.19068 400.256 1.9679 398.465 2.82189L402.603 2.19068L399.947 3.49023C401.182 3.49023 402.603 2.93328 403.344 3.0818C402.047 3.78727 402.233 3.60162 402.788 4.3071C401.059 2.97041 399.391 5.08683 397.415 4.19571L397.476 2.00503C394.511 1.03964 392.164 3.11893 388.273 2.56198L389.508 2.93328C389.014 3.78727 387.099 3.04467 385.864 3.41597C385.987 2.67337 385.184 2.41346 384.69 1.9679C384.752 2.52485 381.849 1.93077 381.478 3.37884L379.749 2.41346C376.599 2.00503 376.166 4.49275 373.14 4.26997C374.066 3.49023 372.707 2.97041 374.684 2.37633C373.695 2.37633 372.769 2.22781 372.769 2.74763C372.151 2.30207 369.989 3.75014 369.063 3.04467C368.63 3.37884 368.507 4.12145 367.395 4.08432C367.272 3.9358 367.395 3.71301 367.395 3.71301C367.395 4.08432 365.604 4.19571 366.592 5.01257C363.504 2.7105 357.945 5.16109 355.227 3.23032C353.127 3.49023 350.471 3.71301 348.494 3.78727C348.617 3.56449 348.494 3.41597 348.865 3.49023C346.147 2.78476 347.197 5.56952 344.047 4.82692C342.441 3.63875 345.714 4.19571 344.726 3.75014C344.294 1.33669 340.958 4.08432 338.858 2.67337L339.352 2.52485C337.746 1.70799 335.399 3.4531 332.805 3.26745C332.805 3.26745 332.928 3.04467 332.805 2.89615C331.013 4.12145 327.616 4.52988 325.084 4.86405C325.887 3.9358 326.257 4.38136 325.763 3.41597C324.651 3.56449 326.072 4.93831 323.848 5.23535C323.107 4.71553 321.501 4.26997 321.254 3.23032L323.416 3.19319C322.304 1.85651 320.636 3.23032 319.524 3.00754L319.648 2.41346C316.374 2.59911 316.312 4.04719 312.792 3.97293L313.162 4.41849C311.247 5.86656 311.556 3.60162 309.641 4.6784L309.086 3.23032C307.788 3.60162 304.638 4.64127 302.353 4.93831C303.65 3.86154 306.306 3.30458 307.974 2.63624C306.738 2.63624 303.712 2.74763 303.032 3.4531C303.526 3.30458 304.206 2.97041 304.7 3.19319C303.156 4.34423 301.117 4.90118 298.647 4.90118C299.079 2.04216 292.099 4.19571 290.308 1.9679C285.861 3.00754 281.537 1.52234 276.348 1.67086C278.201 3.89867 274.866 1.74512 275.175 4.01006C274.001 4.15858 273.507 4.12145 273.383 3.97293L269.739 2.59911C268.874 1.93077 270.851 2.11642 270.789 1.5966C268.133 1.37382 269.677 0.594082 267.886 0C268.257 0.816863 266.959 1.15103 265.477 0.853993L267.577 1.89364C263.871 3.11893 264.427 0 260.721 1.18816L261.894 0.482692C259.98 0.891123 254.853 0.482692 253 2.30207C252.691 2.04216 252.197 1.41095 253.062 1.26242C248.491 1.00251 242.931 3.19319 239.411 2.07929L239.781 1.52234C238.917 1.67086 238.299 2.56198 237.249 2.00503C237.311 1.78225 237.619 1.44808 237.187 1.41095C236.755 1.5966 234.963 2.37633 233.79 2.04216L234.778 1.41095C230.331 0.668343 227.983 2.93328 224.277 3.30458C224.277 1.67086 220.818 1.15103 219.089 0.891123L219.151 0.668343C213.962 0.482692 210.379 2.00503 205.623 2.67337C202.658 0.891124 195.555 1.93077 190.799 0.928254C191.54 1.22529 190.675 2.19068 189.811 2.37633C188.699 2.04216 186.722 3.52736 186.907 2.00503L187.278 2.04216C186.413 0.556952 184.128 0.965384 182.337 0.928254L182.028 2.89615C177.333 0 169.736 3.89866 167.141 1.37382C166.03 1.85651 164.609 1.85651 163.497 2.3392L163.559 1.29955C160.409 1.03964 158.864 0.891123 154.973 1.15103L155.776 0.408432C153.614 0.334171 152.996 3.4531 151.02 3.49023L150.402 1.93077C146.573 1.9679 142.743 0.594082 138.913 2.00503C138.975 1.78225 139.099 1.33669 139.716 1.26242C137.925 1.22529 132.736 0.185651 133.416 2.3392C133.354 0.928254 129.463 2.19068 127.424 2.82189L127.733 1.78225C126.004 3.11893 125.942 3.4531 123.533 3.8244C122.977 3.67588 123.039 3.00754 123.78 3.26745C121.865 2.7105 122.297 4.23284 119.95 3.71301L120.815 3.04467C118.838 2.97041 119.024 3.30458 117.912 4.08432C116.677 4.49275 114.144 3.8244 113.897 2.89615C113.65 3.4531 112.538 4.23284 111.364 3.97293C111.179 3.56449 111.612 3.34171 111.797 3.26745C108.523 2.56198 106.855 4.45562 104.632 3.4531C104.57 3.11893 104.446 2.93328 104.261 2.82189C106.855 2.85902 109.017 2.89615 108.77 2.97041C108.77 2.00503 106.67 1.85651 108.338 0.519822C106.608 1.22529 103.705 2.78476 101.667 2.3392C101.543 2.26494 101.481 2.15355 101.42 2.00503L101.605 1.89364C101.111 1.78225 100.678 1.89364 100.308 2.04216C99.6284 1.89364 99.2578 1.78225 98.5783 1.74512C98.3313 0.965384 96.1694 1.33669 95.1193 1.26242C95.1811 2.30207 93.8222 2.15355 95.1193 3.00754C94.934 2.93328 95.3046 2.89615 96.0458 2.82189C96.2311 2.78476 96.4164 2.78476 96.4782 2.7105C96.4782 2.74763 96.4164 2.78476 96.4164 2.78476C97.0959 2.74763 98.0224 2.74763 99.0725 2.7105C98.2077 3.23032 97.343 3.67588 96.1694 3.11893C95.6134 3.78727 95.0575 4.49275 94.6869 4.78979C93.2662 3.34171 90.4249 2.56198 90.0543 1.63373C86.8423 2.22781 82.4567 2.00503 80.4184 3.97293C79.4919 4.23284 79.3683 3.41597 78.9977 3.11893C79.5536 2.93328 80.1713 2.97041 80.4184 2.67337C78.5653 3.19319 74.9827 2.85902 74.5504 4.23284C72.2649 3.60162 75.8475 2.97041 72.6973 3.19319L73.1297 2.78476C66.8911 0.594082 62.9379 6.27499 56.0198 3.4531C56.5139 3.75014 56.761 3.8244 56.8846 4.08432C48.9782 2.85902 40.5777 5.23535 32.7948 3.26745C30.5711 2.85902 30.3241 3.75014 28.9652 4.41849L28.471 3.30458L26.1856 4.56701C22.9118 5.53239 20.5029 1.81938 16.3644 3.63875L16.9203 4.38136C15.3761 4.23284 12.1641 4.82692 12.4112 3.9358C12.2877 4.08432 11.917 4.75266 11.3611 4.34423L11.2994 3.75014L7.65501 4.75266C4.81366 4.34423 8.08739 2.41346 3.9489 2.30207C2.40469 2.56198 -0.436669 4.04719 0.119248 4.41849C0.736934 4.45562 1.72523 4.78979 1.72523 5.38387L0.366354 5.68091C0.119279 7.42603 -0.992586 9.17115 2.46645 10.3964L4.87543 9.3568L5.67842 10.2108H3.64006C4.81366 10.9905 5.49311 10.285 6.35787 9.83949C6.54318 10.285 6.91379 10.5821 7.34617 10.7677L9.69338 9.13402C10.0022 9.76523 8.64331 10.4336 10.2493 10.8049C11.3611 10.0251 9.19923 9.28253 10.9905 8.79984C12.1641 9.57958 11.7935 10.2108 13.1524 9.54245C13.3377 9.98801 13.0289 10.285 12.5347 10.4707C13.7701 9.95088 15.7467 10.2479 16.3644 9.31967C17.538 10.285 20.4411 9.05976 20.3176 10.6935C20.6882 10.285 22.4177 9.39393 23.5295 9.3568C21.4912 11.3247 27.668 9.46819 27.1121 11.5846C28.5946 9.83949 32.486 10.8049 35.142 9.83949C35.0185 9.95088 34.7714 10.2479 34.5243 10.1737C36.0068 10.285 36.4392 10.842 37.3657 11.1762C37.551 9.7281 39.8982 9.39393 41.1336 8.5028C42.9866 9.91375 40.0217 10.2108 40.5777 11.5475C40.5159 10.3593 43.7896 10.3593 43.1719 9.39393C44.5926 10.2479 44.4073 9.80236 45.0868 11.0277C45.3338 9.20828 46.3839 10.7306 47.5575 9.61671C49.5959 10.5078 48.0517 11.3247 50.2753 10.7677C51.3872 11.2876 49.4106 11.9188 49.4106 11.9188ZM102.223 8.79984C101.79 8.83697 101.358 8.8741 101.111 8.8741C101.358 8.83698 101.667 8.83697 102.223 8.79984ZM106.67 8.76271C106.114 8.72558 105.435 8.72558 104.755 8.72558C104.57 8.35428 104.755 7.98298 105.188 8.02011C104.941 8.24289 105.991 8.46567 106.67 8.76271ZM97.2812 1.52234C97.9606 1.37382 98.2077 1.5966 98.3313 1.78225C98.0224 1.78225 97.59 1.81938 97.0959 1.89364C97.0959 1.93077 97.0341 1.9679 97.0341 2.00503C97.0341 1.85651 97.1577 1.67086 97.2812 1.52234Z" fill="#81F297"/>
<path d="M95.9841 2.89615C95.9223 2.93328 95.8605 2.97041 95.737 2.97041C95.8605 3.04467 96.0459 3.15606 96.1694 3.19319C96.2312 3.0818 96.3547 2.97041 96.4165 2.85902C96.2312 2.89615 96.1076 2.89615 95.9841 2.89615Z" fill="#81F297"/>
<path d="M498.592 4.45562L498.468 4.41849C498.53 4.45562 498.592 4.49275 498.653 4.56701C498.592 4.52988 498.592 4.49275 498.592 4.45562Z" fill="#81F297"/>
<path d="M168.006 10.7677L168.006 10.5078L167.574 10.7306L168.006 10.7677Z" fill="#81F297"/>
<path d="M523.052 8.02011C523.114 8.09437 523.175 8.20576 523.361 8.28002C523.361 8.24289 523.175 8.1315 523.052 8.02011Z" fill="#81F297"/>
<path d="M533.614 8.28002L535.097 8.65132C534.417 8.42854 533.985 8.31715 533.614 8.28002Z" fill="#81F297"/>
<path d="M541.706 8.79984C541.83 8.61419 541.83 8.46567 541.891 8.35428L541.706 8.79984Z" fill="#81F297"/>
<path d="M412.548 10.0251C412.424 10.0251 412.301 10.0623 412.239 10.0623C411.498 10.2479 411.992 10.1737 412.548 10.0251Z" fill="#81F297"/>
<path d="M450.968 7.57455C450.536 7.7602 450.165 7.94585 449.733 8.05724C450.412 8.1315 450.968 8.16863 450.968 7.57455Z" fill="#81F297"/>
<path d="M369.619 11.2876C369.619 11.2504 369.619 11.2504 369.619 11.2876C369.557 11.2876 369.434 11.2876 369.372 11.2876H369.619Z" fill="#81F297"/>
<path d="M447.941 8.05724C448.621 8.28002 449.177 8.20576 449.733 8.05724C449.177 7.98298 448.559 7.90872 447.941 8.05724Z" fill="#81F297"/>
<path d="M576.914 9.24541L577.285 9.28254C577.285 9.20828 577.285 9.17115 577.347 9.09689L576.914 9.24541Z" fill="#81F297"/>
<path d="M577.346 9.13402L577.779 9.02262C577.594 9.02262 577.408 9.02262 577.346 9.13402Z" fill="#81F297"/>
<path d="M578.705 8.76271L577.779 9.02262C578.088 9.02262 578.52 9.05975 578.705 8.76271Z" fill="#81F297"/>
<path d="M566.166 8.76271L566.043 9.13402C566.105 9.09688 566.166 8.94836 566.166 8.76271Z" fill="#81F297"/>
<path d="M562.893 8.8741C563.696 8.94837 564.869 9.69097 565.919 9.43106L566.043 9.13402C565.549 9.7281 563.634 8.24289 562.893 8.8741Z" fill="#81F297"/>
<path d="M549.242 4.19571L551.96 4.49275C551.465 4.08432 550.848 3.56449 552.083 3.4531C548.686 2.26494 552.824 4.38136 549.242 4.19571Z" fill="#81F297"/>
<path d="M540.78 3.63875C542.262 3.4531 540.779 3.04467 540.841 2.82189C539.915 3.19319 539.668 3.26745 540.78 3.63875Z" fill="#81F297"/>
<path d="M479.382 3.63875L479.505 2.67337C478.393 2.82189 479.567 3.04467 479.382 3.63875Z" fill="#81F297"/>
<path d="M467.707 8.53993L468.757 9.13402L469.313 8.24289L467.707 8.53993Z" fill="#81F297"/>
<path d="M460.727 1.78225L461.222 1.63373L459.368 1.9679L460.727 1.78225Z" fill="#81F297"/>
<path d="M357.697 2.11642L358.068 3.30458C358.809 3.04467 358.995 1.74512 357.697 2.11642Z" fill="#81F297"/>
<path d="M313.224 3.30458C312.73 2.7105 311.495 2.3392 310.692 2.93328C311.68 2.97041 312.73 3.4531 313.224 3.30458Z" fill="#81F297"/>
<path d="M179.804 1.37382L180.669 1.00251L179.001 1.33669L179.804 1.37382Z" fill="#81F297"/>
</svg>
