<svg width="74" height="6" viewBox="0 0 74 6" fill="none" xmlns="http://www.w3.org/2000/svg">
<path d="M73.9822 4.23284C74.0211 4.08432 73.9978 3.71301 73.8965 3.78727L73.8187 4.39992L73.9822 4.23284Z" fill="#FA668C"/>
<path d="M73.2658 3.10037C73.1412 3.39741 72.9933 3.91723 73.0789 4.49275C73.2035 3.89867 73.2347 4.14001 73.3671 3.4531C73.4761 3.37884 73.5539 3.65732 73.5384 3.8801C73.5773 3.73158 73.7019 4.01006 73.7642 3.62019C73.624 3.1375 73.4449 3.11893 73.2658 3.52736C73.2191 3.37884 73.2502 3.21176 73.2658 3.10037Z" fill="#FA668C"/>
<path d="M62.7692 2.13498L62.8388 2.20924C62.8234 2.17211 62.8001 2.15355 62.7692 2.13498Z" fill="#FA668C"/>
<path d="M56.2749 1.80081C56.3214 1.78225 56.3446 1.72655 56.3446 1.67086C56.2982 1.70799 56.2594 1.74512 56.2749 1.80081Z" fill="#FA668C"/>
<path d="M55.1614 1.13247C55.1847 1.15103 55.2079 1.1696 55.2234 1.1696C55.2001 1.1139 55.1769 1.07677 55.1614 1.13247Z" fill="#FA668C"/>
<path d="M62.7692 2.13498L62.5979 1.94933C62.5901 2.15355 62.6913 2.09785 62.7692 2.13498Z" fill="#FA668C"/>
<path d="M71.8175 4.58557C71.8564 4.54844 71.8875 4.49275 71.9109 4.41849C71.8798 4.43705 71.8486 4.47418 71.8252 4.47418C71.8175 4.51131 71.8175 4.54844 71.8175 4.58557Z" fill="#FA668C"/>
<path d="M65.6347 1.65229H65.6892C65.7048 1.57803 65.7204 1.50377 65.7359 1.41095L65.6347 1.65229Z" fill="#FA668C"/>
<path d="M67.8384 1.5409C67.7917 1.52234 67.7683 2.04216 67.7527 2.26494C67.7839 2.04216 67.815 1.94933 67.8618 1.9122C67.8618 1.81938 67.854 1.70799 67.8384 1.5409Z" fill="#FA668C"/>
<path d="M71.3269 2.46915L71.3888 2.39489C71.3656 2.41346 71.3424 2.43202 71.3269 2.46915Z" fill="#FA668C"/>
<path d="M64.0616 1.52234C64.0616 1.44808 64.0539 1.37382 64.0384 1.33669C64.0462 1.41095 64.0539 1.46664 64.0616 1.52234Z" fill="#FA668C"/>
<path d="M2.56169 5.45813C2.56169 5.421 2.56169 5.40244 2.56169 5.36531C2.54582 5.421 2.53789 5.45813 2.56169 5.45813Z" fill="#FA668C"/>
<path d="M0.00728937 2.87759L0.046001 2.84046C0.046001 2.74763 0.0537434 2.63624 0.0537434 2.54341L0.00728937 2.87759Z" fill="#FA668C"/>
<path d="M53.1291 0.464127C53.1368 0.464127 53.1368 0.464127 53.1368 0.482692C53.191 0.408432 53.16 0.426997 53.1291 0.464127Z" fill="#FA668C"/>
<path d="M34.4874 0.835428C34.6977 1.29956 34.1448 1.42951 34.464 1.94933C34.4329 1.76368 34.7522 1.15103 34.4874 0.835428Z" fill="#FA668C"/>
<path d="M71.7629 4.51131C71.7318 4.51131 71.7007 4.52988 71.6695 4.51131C71.7084 4.52988 71.7396 4.52988 71.7629 4.51131Z" fill="#FA668C"/>
<path d="M34.464 1.9679L34.495 2.02359C34.4795 1.98646 34.4718 1.98646 34.464 1.9679Z" fill="#FA668C"/>
<path d="M48.4492 0.779733C48.4569 0.872558 48.4802 0.946819 48.4956 1.00251C48.4956 0.946819 48.4879 0.891123 48.4492 0.779733Z" fill="#FA668C"/>
<path d="M51.9377 1.52234L51.852 1.44808C51.8832 1.48521 51.9143 1.50377 51.9377 1.52234Z" fill="#FA668C"/>
<path d="M46.6427 1.50377C46.5959 1.46664 46.5804 1.39238 46.5181 1.46664C46.5259 1.48521 46.5336 1.50377 46.5336 1.52234C46.557 1.46664 46.5882 1.42951 46.6427 1.50377Z" fill="#FA668C"/>
<path d="M44.7582 1.50377C44.766 1.5409 44.7816 1.57803 44.7894 1.61516C44.805 1.5966 44.8283 1.5966 44.8517 1.57803L44.7582 1.50377Z" fill="#FA668C"/>
<path d="M8.28473 5.19822C8.2458 5.0497 8.21465 4.88261 8.19908 4.73409C8.23022 5.10539 7.9499 5.23535 8.28473 5.19822Z" fill="#FA668C"/>
<path d="M71.8172 4.28853C71.8094 4.41849 71.7939 4.49275 71.7629 4.51131C71.7862 4.51131 71.802 4.49275 71.8252 4.47418C71.8252 4.39992 71.8249 4.34423 71.8172 4.28853Z" fill="#FA668C"/>
<path d="M46.5648 5.62522L46.2689 5.55096C46.3467 5.60665 46.4558 5.62522 46.5648 5.62522Z" fill="#FA668C"/>
<path d="M21.8023 5.12396L21.7326 5.19822C21.7558 5.19822 21.779 5.17966 21.8023 5.12396Z" fill="#FA668C"/>
<path d="M45.3812 5.62522C45.3267 5.43957 45.2722 5.32818 45.2099 5.27248C45.1943 5.30961 45.1865 5.34674 45.1787 5.40244L45.3812 5.62522Z" fill="#FA668C"/>
<path d="M6.22921 5.95939C6.51732 5.97795 6.36159 5.29105 6.42388 4.90118C6.7665 4.71553 6.57962 5.40244 6.69642 5.75517C6.90667 5.56952 7.07019 4.93831 7.22593 4.97544C7.2415 5.08683 7.27265 5.12396 7.23371 5.27248C7.45953 4.73409 7.90338 5.25392 8.16034 4.56701C8.18371 4.6227 8.19149 4.6784 8.19149 4.73409C8.15256 4.39992 8.14477 4.04719 8.15256 3.78727C8.27715 3.76871 8.38616 3.36028 8.44067 3.80584C8.3628 3.78727 8.35501 3.97293 8.31608 4.12145L8.44846 3.91723C8.56526 4.56701 8.26936 4.14001 8.26936 4.6227C8.53411 4.41849 8.8378 3.8801 9.03247 4.06575C9.0714 4.69696 8.56526 4.26997 8.83001 4.84548L8.51854 4.60414C8.75214 5.60665 8.33165 4.52988 8.54969 5.60665C8.9546 5.7923 9.00911 5.29105 9.41402 5.4767C9.50747 5.12396 9.38288 4.95687 9.47632 4.60414C10.0525 3.97293 9.92795 6.18217 10.3562 5.34674C10.4652 4.91974 10.512 4.12145 10.8079 4.54844L10.7066 5.25391C11.1038 5.32818 10.9325 4.23284 11.3452 4.71553C11.2751 4.994 11.0337 4.95687 11.096 5.03113C11.3685 5.56952 11.2906 4.60414 11.4931 4.60414L11.532 5.23535C11.9525 5.14252 12.412 4.6784 12.8792 4.56701C12.8558 4.75266 12.7701 4.95687 12.8792 5.14252C13.4632 4.82692 14.1328 5.21678 14.7013 5.58809L14.9193 5.0497C14.966 5.0497 15.0128 5.29105 14.9582 5.40244C15.1763 5.60665 14.966 5.0497 15.075 4.84548C15.1996 4.80835 15.2386 5.16109 15.1607 5.32818C15.55 4.86405 16.2664 4.32566 16.6791 4.91974L16.6013 5.08683C16.9205 5.30961 16.9595 3.97293 17.2554 4.47418L17.2086 4.56701C17.9017 4.80835 18.6648 4.3071 19.1943 5.12396C19.2955 4.34423 19.8795 5.4767 19.9262 4.38136C20.3234 4.91974 20.2066 5.12396 20.7672 5.4767C20.9152 5.53239 20.9853 4.78979 21.1721 4.6784L21.1799 5.25391L21.4291 4.65983L21.5615 5.34674L21.7326 5.19822C21.6625 5.16109 21.5848 4.93831 21.6004 4.77122C21.8729 4.51131 22.2545 5.16109 22.2623 5.45813L22.9008 4.97544C22.8852 5.19822 22.7762 5.29105 22.6984 5.43957C23.041 4.86405 22.7606 6.03365 23.0721 5.51383C23.0332 5.38387 23.0955 5.17966 23.1033 5.0497C23.259 5.40244 23.6094 5.40244 23.8742 5.25391L23.8274 5.64378C24.3024 5.73661 24.8242 5.45813 25.3537 5.45813C25.1668 5.27248 25.2057 4.58557 25.3615 4.52988L25.4237 5.14252C25.525 4.77122 25.2602 4.91974 25.4705 4.45562C25.6651 4.52988 25.6028 5.14252 25.4938 5.34674L25.7352 5.14252C25.7508 5.32818 25.6963 5.421 25.6807 5.64378C25.7819 5.27248 26.0934 6.25643 26.2414 5.60665L26.2569 5.7923C26.7864 5.7923 27.0278 5.58809 27.4639 5.55096C27.4717 5.03113 27.643 5.14252 27.7676 4.71553C28.0868 4.88261 28.4372 5.29105 28.8188 5.25391C29.0913 4.994 28.8967 4.80835 29.0213 4.49275C29.0446 4.97544 29.4262 4.91974 29.2237 5.27248C29.6831 5.19822 29.8077 5.17966 30.3917 4.78979C30.3294 4.58557 30.2594 4.51131 30.2983 4.34423C30.4073 4.26997 30.5397 4.54844 30.5241 4.77122L30.493 4.82692C31.1471 4.12145 31.9958 6.2193 32.5175 5.21678L32.4708 5.25391L33.0081 4.73409C33.2573 4.80835 32.8602 5.08683 33.0393 5.38387C33.6233 4.58557 33.9581 5.49526 34.4331 4.97544C34.8069 6.38638 35.7491 4.88261 36.2474 5.77374L36.2163 5.43957C36.3487 5.12396 36.372 5.62522 36.4655 5.69948C36.4499 5.43957 36.3253 5.40244 36.4032 5.21678C37.5011 4.82692 38.6614 5.69948 39.7827 5.99652C40.1954 6.08934 40.0163 4.28853 40.5302 5.06826L40.3822 5.68091C41.2076 4.93831 42.0798 5.69948 42.8896 5.08683C42.8429 5.23535 42.8429 5.421 42.7572 5.40244C42.9285 5.848 43.388 5.421 43.3957 5.06826C43.5203 5.10539 43.4269 5.40244 43.5048 5.58809C43.6761 5.848 43.933 5.01257 44.0265 5.45813C44.0421 5.53239 43.9798 5.60665 43.9486 5.64378C44.081 5.43957 44.4937 5.69948 44.3847 5.19822C44.6884 5.43957 44.9685 4.97544 45.2099 5.27248C45.3656 4.69696 45.7318 5.55096 45.7785 4.73409C45.7552 5.56952 46.3158 5.40244 46.5105 5.01257C46.4482 5.27248 46.674 5.27248 46.6039 5.62522C46.8219 5.60665 47.0244 5.45813 46.9855 5.03113C47.3904 6.03365 47.7953 4.21427 48.0289 5.51383C48.683 5.06826 49.2826 4.75266 49.8744 4.56701C49.851 5.40244 49.2281 4.64127 49.2514 5.53239C49.8121 5.17966 50.1313 4.47418 50.6842 4.6784C50.8244 4.78979 50.6063 5.0497 50.5518 5.17966C51.1047 4.82692 51.6264 5.25391 52.1248 4.80835C52.1248 4.88261 52.0703 4.97544 52.0158 5.03113C52.117 5.01257 52.2416 5.16109 52.2338 4.77122L52.1404 4.88261C51.9846 4.32566 52.5297 3.73158 52.5453 3.43454C52.3817 4.52988 53.0358 3.71301 52.7711 5.08683C52.8334 5.01257 52.919 4.82692 52.9035 4.58557C52.9969 4.65983 53.0281 4.80835 52.9346 5.10539C53.285 4.90118 53.1604 4.49275 53.4797 4.49275C53.4797 4.6784 53.4174 4.75266 53.3785 4.95687C53.542 4.60414 53.6977 4.23284 53.9703 4.39992C53.9547 4.51131 53.9858 4.65983 53.908 4.65983C54.3674 4.60414 54.6944 3.69445 55.1928 4.04719C55.0448 4.84548 55.3641 4.3071 55.3875 5.01257L55.66 4.80835L55.551 4.47418C55.7846 4.49275 55.9948 3.97293 56.2051 4.21427L56.0104 4.45562L56.4543 4.32566L56.2051 4.06575C56.4465 3.71301 56.1817 3.19319 56.4932 3.37884C56.4309 3.4531 56.7346 3.37884 56.8514 3.78727C56.9682 3.56449 57.0928 3.34171 57.2641 3.5088C57.3108 3.73158 57.2252 4.26997 57.2563 4.41849C57.3731 3.84297 57.8092 4.2514 57.9571 3.63875C57.9104 3.78727 57.9026 4.14001 57.9182 4.21427L58.0116 3.75014C58.1206 3.89866 58.1362 3.97293 58.1206 4.26997C58.4477 4.36279 58.0194 3.39741 58.4088 3.76871C58.3776 3.80584 58.3932 3.8801 58.3309 3.95436C58.728 4.15858 59.094 3.65732 59.4522 3.8801C59.5612 4.58557 59.1329 4.04719 59.2575 4.64127C59.7792 4.51131 60.3399 3.80584 60.846 3.97293L60.7682 3.89866C60.8382 2.91472 61.1419 4.38136 61.3989 3.91723C61.3366 3.99149 61.3132 4.45562 61.3366 4.36279C61.6792 4.52988 62.0452 4.12145 62.5669 3.80584L62.5046 4.06575C62.7071 4.28853 63.0419 4.19571 63.2599 4.3071C63.3222 4.04719 63.4468 4.08432 63.369 3.71301C64.0464 5.16109 64.6616 2.93328 65.2689 4.14001C65.1989 4.14001 65.0976 4.36279 65.1521 4.36279L65.6661 4.12145C65.6271 3.71301 65.6038 3.8801 65.4948 3.54593C65.5571 3.28602 65.705 3.10037 65.8296 3.10037C65.596 3.37884 65.8296 3.78727 65.9308 4.02862C65.9153 3.89867 65.9464 3.75014 65.9386 3.62019C66.2034 4.38136 65.9853 2.7662 66.3513 3.26745L66.3357 3.49023C66.4759 3.37884 66.6005 3.0818 66.7484 3.1375C66.8107 3.63875 66.6005 3.36028 66.5927 3.76871C66.803 3.73158 67.0054 2.82189 67.1923 3.32315C67.1066 3.4531 66.9743 3.47167 66.8886 3.60162C67.0911 4.17714 67.1144 4.02862 67.2702 4.12145L67.2546 4.10288L67.605 4.36279L67.5116 4.23284C67.7685 2.93328 68.0411 3.99149 68.3915 3.15606C68.0489 3.95436 68.337 3.62019 68.3058 4.17714C68.3915 4.32566 68.5316 4.51131 68.4927 4.65983C68.6562 4.21427 68.7652 5.01257 68.9988 4.36279C69.0066 4.54844 69.1779 4.38136 69.139 4.82692C69.357 4.6784 69.0845 4.51131 69.1079 4.28853C69.4427 3.67588 69.8865 5.03113 70.3615 4.19571C70.782 3.84297 70.8599 3.23032 71.2414 2.91472C71.3738 3.21176 71.1324 3.58306 71.1324 3.58306C71.3427 3.84297 71.4984 3.80584 71.6931 3.60162C71.6542 3.76871 71.6931 3.89866 71.7554 4.10288C71.9111 4.04719 71.8566 3.43454 72.0669 3.71301C72.0279 3.91723 71.989 4.23284 71.9111 4.43705C72.098 4.26997 72.2771 3.9358 72.4718 3.76871C72.5263 4.08432 72.355 4.2514 72.2849 4.45562C72.5029 4.3071 72.8455 4.17714 72.9078 3.67588L72.7677 3.49023C72.8455 3.47167 72.8066 3.91723 72.7521 4.01006C72.5652 4.39992 72.4873 3.84297 72.4718 3.65732L72.6119 3.54593C72.4718 2.48772 72.0669 3.71301 71.7865 3.65732L71.9033 2.87759L71.623 3.52736C71.5607 3.32315 71.5218 2.89615 71.6542 2.78476C71.4595 2.39489 71.4828 3.06324 71.3115 2.63624C71.296 2.56198 71.3037 2.52485 71.3193 2.50628L71.1246 2.72907C71.1636 2.56198 71.0935 2.19068 71.2103 2.30207C70.8677 1.85651 70.6497 2.87759 70.5251 2.30207L70.5562 2.24637C70.0812 2.46915 70.5095 2.78476 70.1513 3.43454L69.9099 2.04216L69.8632 2.61768C69.8165 2.59911 69.7152 2.56198 69.7308 2.32063C69.5439 2.7105 69.7619 2.56198 69.6529 2.93328C69.4115 2.41346 68.9988 3.17463 68.9443 2.26494C68.8587 2.69194 69.1702 2.59911 68.921 2.89615C68.8509 1.93077 68.6251 3.06324 68.407 2.61768C68.4771 2.11642 68.6796 2.37633 68.4615 1.93077C68.3292 2.78476 68.0411 1.74512 67.8542 1.9122C67.8464 2.58054 67.4571 2.19068 67.1456 2.41346C67.1612 2.19068 66.5694 2.04216 66.2812 1.80081L66.289 1.68942C66.2345 2.37633 65.9386 2.24637 65.7206 2.37633C65.7284 1.9679 65.7673 1.80081 65.8841 1.63373H65.6816C65.6427 1.85651 65.5804 1.9679 65.448 2.06072L65.5026 1.55947C65.23 1.5966 64.9575 2.15355 64.6149 1.81938C64.5915 2.30207 64.8874 3.1375 64.5214 3.4531C64.5058 3.19319 64.498 2.74763 64.5915 2.65481C64.5603 2.69194 64.4825 2.85902 64.4202 2.7662L64.5681 2.3392C64.4124 2.15355 64.4825 2.69194 64.3579 2.65481C64.3579 2.2835 64.2645 2.39489 64.28 2.09785C64.3112 2.06072 64.389 2.24637 64.4358 2.09785C64.2956 2.02359 64.1243 1.81938 64.062 1.5409C64.0776 1.74512 64.062 2.04216 63.9608 2.07929C63.6882 2.09785 63.8673 1.63373 63.7116 1.44808C63.6493 1.70799 63.478 1.42951 63.4702 1.98646C63.3923 1.98646 63.3767 1.72655 63.3456 1.57803C63.2054 1.81938 62.6915 1.65229 62.855 2.22781L62.894 2.26494C62.8862 2.2835 62.8784 2.2835 62.8706 2.2835C62.4112 2.82189 61.9206 1.9679 61.469 2.20924V2.02359C61.1964 2.22781 60.8694 2.15355 60.6747 2.54341C60.5968 2.54341 60.4878 2.20924 60.519 1.98646C60.3087 2.11642 60.2854 2.3392 59.9895 2.02359C60.1997 1.70799 59.9194 1.74512 60.1997 1.78225C59.9272 1.65229 59.8727 1.35525 59.5846 1.85651C59.6858 1.39238 59.3821 1.26242 59.2575 1.41095L59.4444 1.74512C59.3042 1.81938 59.1719 1.76368 59.0473 1.72655L59.1174 1.1139C58.5645 0.371301 58.1284 2.39489 57.7079 1.13247C57.56 1.55947 58.0038 1.42951 57.8792 1.94933C57.6145 1.85651 57.3575 0.965384 57.2719 0.965384C56.9293 0.631212 56.9526 1.87507 56.5866 1.63373C56.6334 1.85651 56.6801 2.45059 56.4075 2.65481C56.1584 2.58054 56.0961 1.72655 56.2596 1.55947C56.3219 1.5409 56.353 1.61516 56.3452 1.68942C56.4231 1.61516 56.5321 1.52234 56.4309 1.28099L56.3997 1.48521C56.2752 1.26242 55.9248 1.28099 56.0104 0.928254C55.8157 1.13247 55.9325 1.28099 56.0727 1.41095C55.7457 1.09534 55.5666 1.39238 55.2317 1.18816C55.2862 1.31812 55.333 1.55947 55.2784 1.55947C54.7879 1.28099 55.0604 1.98646 54.7334 2.07929C54.5465 1.74512 54.8034 1.28099 54.4686 1.55947C54.2662 1.33669 54.4219 0.983949 54.5075 0.798298C54.2039 1.22529 53.9391 0.519822 53.7678 0.445562L53.9313 0.259911C53.8379 0.371301 53.76 0.371301 53.6744 0.352736L53.7678 0.798298C53.6744 0.724038 53.5965 0.724038 53.5965 0.538387C53.503 0.835428 53.6744 1.26242 53.4797 1.67086C53.3551 1.44808 53.0981 1.9122 53.0514 1.31812C53.4485 1.52234 53.0047 0.724038 53.3395 0.631212C53.2772 0.705473 53.1994 0.705473 53.0981 0.612647C53.0826 0.538387 53.1137 0.482692 53.1371 0.464127C52.7555 -0.0556952 52.9658 1.13247 52.5686 1.1139C52.6153 0.779733 52.4752 0.482692 52.4129 0.556952C52.5686 0.556952 52.4908 1.1139 52.3428 1.35525C52.0936 1.09534 52.0701 1.5409 51.9377 1.52234L52.0858 1.65229C52.0313 1.98646 51.9067 1.93077 51.7354 2.04216C51.7199 1.78225 51.8912 1.85651 51.8289 1.74512C51.642 2.32063 51.3928 1.13247 51.1203 1.52234C50.9957 1.29955 51.1047 0.909689 50.9957 0.742603C50.692 1.1696 50.6686 0.297041 50.3494 0.649777C50.4428 1.09534 50.4584 0.983949 50.2326 1.41095L50.7543 1.09534L50.4195 1.74512C50.5752 1.74512 50.7543 1.46664 50.8477 1.5409C50.6842 1.89364 50.7076 1.80081 50.7777 2.15355C50.5596 1.48521 50.3494 2.54341 50.1002 2.09785L50.108 1.00251C49.7342 0.519822 49.4383 1.55947 48.9478 1.28099L49.1035 1.46664C49.0412 1.89364 48.7998 1.52234 48.6441 1.70799C48.6596 1.33669 48.5584 1.20673 48.4961 0.983949C48.5039 1.26242 48.1379 0.965384 48.0912 1.68942L47.8732 1.20673C47.476 1.00251 47.4215 2.24637 47.04 2.13498C47.1568 1.74512 46.9855 1.48521 47.2347 1.18816C47.1101 1.18816 46.9933 1.1139 46.9933 1.37382C46.9154 1.15103 46.6429 1.87507 46.5261 1.52234C46.4715 1.68942 46.456 2.06072 46.3158 2.04216C46.3002 1.9679 46.3158 1.85651 46.3158 1.85651C46.3158 2.04216 46.09 2.09785 46.2146 2.50628C45.8252 1.35525 45.1244 2.58054 44.7818 1.61516C44.517 1.74512 44.1822 1.85651 43.933 1.89364C43.9486 1.78225 43.933 1.70799 43.9798 1.74512C43.6371 1.39238 43.7695 2.78476 43.3724 2.41346C43.1699 1.81938 43.5826 2.09785 43.458 1.87507C43.4035 0.668343 42.983 2.04216 42.7183 1.33669L42.7806 1.26242C42.5781 0.853993 42.2822 1.72655 41.9552 1.63373C41.9552 1.63373 41.9708 1.52234 41.9552 1.44808C41.7294 2.06072 41.3011 2.26494 40.9818 2.43202C41.0831 1.9679 41.1298 2.19068 41.0675 1.70799C40.9273 1.78225 41.1064 2.46915 40.8261 2.61768C40.7327 2.35776 40.5302 2.13498 40.499 1.61516L40.7716 1.5966C40.6314 0.928254 40.4212 1.61516 40.281 1.50377L40.2966 1.20673C39.8839 1.29955 39.8761 2.02359 39.4322 1.98646L39.479 2.20924C39.2376 2.93328 39.2765 1.80081 39.0351 2.3392L38.965 1.61516C38.8015 1.80081 38.4044 2.32063 38.1163 2.46915C38.2798 1.93077 38.6146 1.65229 38.8249 1.31812C38.6691 1.31812 38.2876 1.37382 38.2019 1.72655C38.2642 1.65229 38.3499 1.48521 38.4122 1.5966C38.2175 2.17211 37.9605 2.45059 37.6491 2.45059C37.7036 1.02108 36.8237 2.09785 36.5978 0.983949C36.0372 1.50377 35.4921 0.761168 34.838 0.835428C35.0716 1.94933 34.6511 0.872558 34.6901 2.00503C34.5421 2.07929 34.4798 2.06072 34.4642 1.98646L34.0048 1.29955C33.8958 0.965384 34.145 1.05821 34.1372 0.798298C33.8024 0.686908 33.997 0.297041 33.7712 0C33.8179 0.408432 33.6544 0.575517 33.4675 0.426997L33.7323 0.946819C33.2651 1.55947 33.3352 0 32.868 0.594082L33.0159 0.241346C32.7745 0.445562 32.1282 0.241346 31.8946 1.15103C31.8557 1.02108 31.7934 0.705473 31.9024 0.631212C31.3262 0.501257 30.6253 1.5966 30.1815 1.03964L30.2282 0.761168C30.1192 0.835428 30.0413 1.28099 29.909 1.00251C29.9167 0.891123 29.9557 0.724038 29.9012 0.705473C29.8467 0.798298 29.6208 1.18816 29.4729 1.02108L29.5975 0.705473C29.0368 0.334171 28.7409 1.46664 28.2737 1.65229C28.2737 0.835428 27.8377 0.575517 27.6196 0.445562L27.6274 0.334171C26.9733 0.241346 26.5217 1.00251 25.9221 1.33669C25.5483 0.445562 24.6528 0.965384 24.0533 0.464127C24.1467 0.612647 24.0377 1.09534 23.9287 1.18816C23.7885 1.02108 23.5393 1.76368 23.5627 1.00251L23.6094 1.02108C23.5004 0.278476 23.2123 0.482692 22.9865 0.464127L22.9475 1.44808C22.3557 0 21.398 1.94933 21.0709 0.686908C20.9307 0.928254 20.7516 0.928254 20.6115 1.1696L20.6193 0.649777C20.2221 0.519822 20.0275 0.445562 19.5369 0.575517L19.6381 0.204216C19.3656 0.167086 19.2877 1.72655 19.0385 1.74512L18.9607 0.965384C18.4779 0.983949 17.9951 0.297041 17.5123 1.00251C17.5201 0.891123 17.5357 0.668343 17.6136 0.631212C17.3877 0.612647 16.7336 0.0928254 16.8193 1.1696C16.8115 0.464127 16.3209 1.09534 16.064 1.41095L16.1029 0.891123C15.8849 1.55947 15.8771 1.72655 15.5734 1.9122C15.5033 1.83794 15.5111 1.50377 15.6046 1.63373C15.3632 1.35525 15.4177 2.11642 15.1218 1.85651L15.2308 1.52234C14.9816 1.48521 15.005 1.65229 14.8648 2.04216C14.7091 2.24637 14.3898 1.9122 14.3587 1.44808C14.3275 1.72655 14.1874 2.11642 14.0394 1.98646C14.016 1.78225 14.0705 1.67086 14.0939 1.63373C13.6812 1.28099 13.471 2.22781 13.1906 1.72655C13.1829 1.55947 13.1673 1.46664 13.1439 1.41095C13.471 1.42951 13.7435 1.44808 13.7124 1.48521C13.7124 1.00251 13.4476 0.928254 13.6578 0.259911C13.4398 0.612647 13.0738 1.39238 12.8169 1.1696C12.8013 1.13247 12.7935 1.07677 12.7857 1.00251L12.8091 0.946819C12.7468 0.891123 12.6923 0.946819 12.6456 1.02108C12.5599 0.946819 12.5132 0.891123 12.4275 0.872558C12.3964 0.482692 12.1238 0.668343 11.9915 0.631212C11.9993 1.15103 11.8279 1.07677 11.9915 1.50377C11.9681 1.46664 12.0148 1.44808 12.1083 1.41095C12.1316 1.39238 12.155 1.39238 12.1628 1.35525C12.1628 1.37382 12.155 1.39238 12.155 1.39238C12.2406 1.37382 12.3574 1.37382 12.4898 1.35525C12.3808 1.61516 12.2718 1.83794 12.1238 1.55947C12.0538 1.89364 11.9837 2.24637 11.937 2.39489C11.7579 1.67086 11.3997 1.28099 11.3529 0.816863C10.948 1.1139 10.3952 1.00251 10.1382 1.98646C10.0214 2.11642 10.0058 1.70799 9.9591 1.55947C10.0292 1.46664 10.1071 1.48521 10.1382 1.33669C9.90459 1.5966 9.45296 1.42951 9.39845 2.11642C9.11034 1.80081 9.56197 1.48521 9.16485 1.5966L9.21935 1.39238C8.43288 0.297041 7.93453 3.1375 7.0624 1.72655C7.1247 1.87507 7.15584 1.9122 7.17142 2.04216C6.1747 1.42951 5.11569 2.61768 4.13455 1.63373C3.85423 1.42951 3.82308 1.87507 3.65177 2.20924L3.58948 1.65229L3.30136 2.2835C2.88866 2.7662 2.58498 0.909689 2.06326 1.81938L2.13334 2.19068C1.93867 2.11642 1.53375 2.41346 1.5649 1.9679C1.54933 2.04216 1.50261 2.37633 1.43252 2.17211L1.42474 1.87507L0.965315 2.37633C0.607121 2.17211 1.01982 1.20673 0.498105 1.15103C0.303435 1.28099 -0.0547595 2.02359 0.0153219 2.20924C0.0931902 2.22781 0.217779 2.39489 0.217779 2.69194L0.046001 2.84046C0.0148537 3.71301 -0.124841 4.58557 0.311221 5.19822L0.614908 4.6784L0.716137 5.10539H0.459171C0.607121 5.49526 0.692776 5.14252 0.801792 4.91974C0.825152 5.14252 0.871873 5.29105 0.926381 5.38387L1.22228 4.56701C1.26121 4.88261 1.0899 5.21679 1.29236 5.40244C1.43252 5.01257 1.15999 4.64127 1.3858 4.39992C1.53375 4.78979 1.48703 5.10539 1.65834 4.77122C1.6817 4.994 1.64277 5.14252 1.58047 5.23535C1.73621 4.97544 1.98539 5.12396 2.06326 4.65983C2.21121 5.14252 2.57719 4.52988 2.56161 5.34674C2.60834 5.14252 2.82637 4.69696 2.96653 4.6784C2.70956 5.66235 3.48825 4.73409 3.41817 5.7923C3.60505 4.91974 4.09562 5.40244 4.43045 4.91974C4.41488 4.97544 4.38373 5.12396 4.35259 5.08683C4.53947 5.14252 4.59398 5.421 4.71078 5.58809C4.73414 4.86405 5.03004 4.69696 5.18578 4.2514C5.41938 4.95687 5.04561 5.10539 5.11569 5.77374C5.10791 5.17966 5.52061 5.17966 5.44274 4.69696C5.62184 5.12396 5.59848 4.90118 5.68413 5.51383C5.71528 4.60414 5.84766 5.36531 5.99561 4.80835C6.25257 5.25391 6.0579 5.66235 6.33823 5.38387C6.47839 5.64378 6.22921 5.95939 6.22921 5.95939ZM12.887 4.39992C12.8324 4.41849 12.7779 4.43705 12.7468 4.43705C12.7779 4.41849 12.8169 4.41849 12.887 4.39992ZM13.4476 4.38136C13.3775 4.36279 13.2919 4.36279 13.2062 4.36279C13.1828 4.17714 13.2062 3.99149 13.2607 4.01006C13.2296 4.12145 13.3619 4.23284 13.4476 4.38136ZM12.264 0.761168C12.3497 0.686908 12.3808 0.798298 12.3964 0.891123C12.3574 0.891123 12.3029 0.909689 12.2406 0.946819C12.2406 0.965384 12.2329 0.983949 12.2329 1.00251C12.2329 0.928254 12.2484 0.835428 12.264 0.761168Z" fill="#FA668C"/>
<path d="M12.1003 1.44808C12.0925 1.46664 12.0847 1.48521 12.0691 1.48521C12.0847 1.52234 12.1081 1.57803 12.1236 1.5966C12.1314 1.5409 12.147 1.48521 12.1548 1.42951C12.1314 1.44808 12.1159 1.44808 12.1003 1.44808Z" fill="#FA668C"/>
<path d="M62.855 2.22781L62.8388 2.20924C62.8466 2.22781 62.8547 2.24637 62.8625 2.2835C62.8547 2.26494 62.855 2.24637 62.855 2.22781Z" fill="#FA668C"/>
<path d="M21.1794 5.38387L21.1799 5.25391L21.1252 5.36531L21.1794 5.38387Z" fill="#FA668C"/>
<path d="M65.9384 4.01006C65.9462 4.04719 65.9539 4.10288 65.9771 4.14001C65.9771 4.12145 65.9539 4.06575 65.9384 4.01006Z" fill="#FA668C"/>
<path d="M67.27 4.14001L67.4568 4.32566C67.3712 4.21427 67.3167 4.15858 67.27 4.14001Z" fill="#FA668C"/>
<path d="M68.29 4.39992C68.3055 4.3071 68.3055 4.23284 68.3133 4.17714L68.29 4.39992Z" fill="#FA668C"/>
<path d="M52.0078 5.01257C51.9922 5.01257 51.9766 5.03113 51.9688 5.03113C51.8754 5.12396 51.9377 5.08683 52.0078 5.01257Z" fill="#FA668C"/>
<path d="M56.8514 3.78727C56.7969 3.8801 56.75 3.97293 56.6954 4.02862C56.7811 4.06575 56.8514 4.08432 56.8514 3.78727Z" fill="#FA668C"/>
<path d="M46.5958 5.64378C46.5958 5.62522 46.5958 5.62522 46.5958 5.64378C46.588 5.64378 46.5725 5.64378 46.5648 5.64378H46.5958Z" fill="#FA668C"/>
<path d="M56.4696 4.02862C56.5553 4.14001 56.6254 4.10288 56.6954 4.02862C56.6254 3.99149 56.5475 3.95436 56.4696 4.02862Z" fill="#FA668C"/>
<path d="M72.7285 4.6227L72.775 4.64127C72.775 4.60414 72.775 4.58557 72.7827 4.54844L72.7285 4.6227Z" fill="#FA668C"/>
<path d="M72.783 4.56701L72.8372 4.51131C72.814 4.51131 72.7908 4.51131 72.783 4.56701Z" fill="#FA668C"/>
<path d="M72.9543 4.38136L72.8372 4.51131C72.8762 4.51131 72.931 4.52988 72.9543 4.38136Z" fill="#FA668C"/>
<path d="M71.3735 4.38136L71.358 4.56701C71.3658 4.54844 71.3735 4.47418 71.3735 4.38136Z" fill="#FA668C"/>
<path d="M70.9609 4.43705C71.0621 4.47418 71.2101 4.84548 71.3425 4.71553L71.358 4.56701C71.2957 4.86405 71.0544 4.12145 70.9609 4.43705Z" fill="#FA668C"/>
<path d="M69.24 2.09785L69.5826 2.24637C69.5203 2.04216 69.4425 1.78225 69.5982 1.72655C69.1699 1.13247 69.6917 2.19068 69.24 2.09785Z" fill="#FA668C"/>
<path d="M68.1732 1.81938C68.3601 1.72655 68.1732 1.52234 68.181 1.41095C68.0642 1.5966 68.0331 1.63373 68.1732 1.81938Z" fill="#FA668C"/>
<path d="M60.4329 1.81938L60.4483 1.33669C60.309 1.41095 60.4561 1.52234 60.4329 1.81938Z" fill="#FA668C"/>
<path d="M58.9614 4.26997L59.0938 4.56701L59.1639 4.12145L58.9614 4.26997Z" fill="#FA668C"/>
<path d="M58.0815 0.891124L58.1438 0.816863L57.9102 0.983949L58.0815 0.891124Z" fill="#FA668C"/>
<path d="M45.0931 1.05821L45.1398 1.65229C45.2332 1.52234 45.2566 0.872558 45.0931 1.05821Z" fill="#FA668C"/>
<path d="M39.4865 1.65229C39.4243 1.35525 39.2685 1.1696 39.1673 1.46664C39.2919 1.48521 39.4243 1.72655 39.4865 1.65229Z" fill="#FA668C"/>
<path d="M22.667 0.686908L22.776 0.501257L22.5658 0.668343L22.667 0.686908Z" fill="#FA668C"/>
</svg>
