<svg width="408" height="12" viewBox="0 0 408 12" fill="none" xmlns="http://www.w3.org/2000/svg">
<path d="M407.902 8.46567C408.117 8.16863 407.988 7.42603 407.43 7.57455L407 8.79984L407.902 8.46567Z" fill="#81F297"/>
<path d="M403.952 6.20073C403.265 6.79482 402.449 7.83446 402.922 8.98549C403.609 7.79733 403.78 8.28002 404.51 6.90621C405.111 6.75769 405.541 7.31464 405.455 7.7602C405.669 7.46316 406.356 8.02011 406.7 7.24038C405.927 6.27499 404.939 6.23786 403.952 7.05473C403.694 6.75769 403.866 6.42351 403.952 6.20073Z" fill="#81F297"/>
<path d="M346.079 4.26997L346.465 4.41849C346.379 4.34423 346.25 4.3071 346.079 4.26997Z" fill="#81F297"/>
<path d="M310.273 3.60162C310.53 3.56449 310.659 3.4531 310.659 3.34171C310.401 3.41597 310.187 3.49023 310.273 3.60162Z" fill="#81F297"/>
<path d="M304.133 2.26494C304.262 2.30207 304.391 2.3392 304.477 2.3392C304.348 2.22781 304.219 2.15355 304.133 2.26494Z" fill="#81F297"/>
<path d="M346.079 4.26997L345.134 3.89866C345.091 4.3071 345.649 4.19571 346.079 4.26997Z" fill="#81F297"/>
<path d="M395.967 9.17115C396.181 9.09689 396.353 8.9855 396.482 8.83698C396.31 8.87411 396.138 8.94837 396.009 8.94837C395.966 9.02262 395.967 9.09689 395.967 9.17115Z" fill="#81F297"/>
<path d="M361.878 3.30458H362.178C362.264 3.15606 362.35 3.00754 362.436 2.82189L361.878 3.30458Z" fill="#81F297"/>
<path d="M374.028 3.0818C373.77 3.04467 373.641 4.08432 373.556 4.52988C373.727 4.08432 373.899 3.89867 374.157 3.8244C374.157 3.63875 374.114 3.41597 374.028 3.0818Z" fill="#81F297"/>
<path d="M393.262 4.93831L393.605 4.78979C393.476 4.82692 393.348 4.86405 393.262 4.93831Z" fill="#81F297"/>
<path d="M353.205 3.04467C353.205 2.89615 353.163 2.74763 353.077 2.67337C353.12 2.82189 353.163 2.93328 353.205 3.04467Z" fill="#81F297"/>
<path d="M14.1219 10.9163C14.1219 10.842 14.1219 10.8049 14.1219 10.7306C14.0361 10.842 13.9931 10.9163 14.1219 10.9163Z" fill="#81F297"/>
<path d="M0.0399735 5.75517L0.254638 5.68091C0.254638 5.49526 0.29757 5.27248 0.29757 5.08683L0.0399735 5.75517Z" fill="#81F297"/>
<path d="M292.928 0.928254C292.971 0.928254 292.971 0.928253 292.971 0.965384C293.271 0.816863 293.099 0.853993 292.928 0.928254Z" fill="#81F297"/>
<path d="M190.147 1.67086C191.306 2.59911 188.257 2.85902 190.018 3.89866C189.846 3.52736 191.606 2.30207 190.147 1.67086Z" fill="#81F297"/>
<path d="M395.666 9.02262C395.494 9.02262 395.323 9.05976 395.151 9.02262C395.365 9.05976 395.537 9.05976 395.666 9.02262Z" fill="#81F297"/>
<path d="M190.018 3.9358L190.189 4.04719C190.104 3.97293 190.061 3.97293 190.018 3.9358Z" fill="#81F297"/>
<path d="M267.125 1.55947C267.168 1.74512 267.297 1.89364 267.383 2.00503C267.383 1.89364 267.34 1.78225 267.125 1.55947Z" fill="#81F297"/>
<path d="M286.359 3.04467L285.887 2.89615C286.058 2.97041 286.23 3.00754 286.359 3.04467Z" fill="#81F297"/>
<path d="M257.165 3.00754C256.907 2.93328 256.821 2.78476 256.478 2.93328C256.521 2.97041 256.564 3.00754 256.564 3.04467C256.692 2.93328 256.864 2.85902 257.165 3.00754Z" fill="#81F297"/>
<path d="M246.775 3.00754C246.818 3.0818 246.904 3.15606 246.947 3.23032C247.033 3.19319 247.161 3.19319 247.29 3.15606L246.775 3.00754Z" fill="#81F297"/>
<path d="M45.6776 10.3964C45.4629 10.0994 45.2912 9.76523 45.2053 9.46819C45.377 10.2108 43.8315 10.4707 45.6776 10.3964Z" fill="#81F297"/>
<path d="M395.967 8.57706C395.924 8.83697 395.838 8.98549 395.666 9.02262C395.795 9.02262 395.881 8.9855 396.009 8.94837C396.009 8.79984 396.009 8.68845 395.967 8.57706Z" fill="#81F297"/>
<path d="M256.735 11.2504L255.104 11.1019C255.533 11.2133 256.134 11.2504 256.735 11.2504Z" fill="#81F297"/>
<path d="M120.209 10.2479L119.823 10.3964C119.951 10.3964 120.08 10.3593 120.209 10.2479Z" fill="#81F297"/>
<path d="M250.21 11.2504C249.909 10.8791 249.609 10.6564 249.265 10.545C249.179 10.6192 249.136 10.6935 249.093 10.8049L250.21 11.2504Z" fill="#81F297"/>
<path d="M34.3433 11.9188C35.9318 11.9559 35.0731 10.5821 35.4166 9.80236C37.3056 9.43106 36.2753 10.8049 36.9193 11.5103C38.0784 11.139 38.98 9.87662 39.8387 9.95088C39.9245 10.1737 40.0963 10.2479 39.8816 10.545C41.1267 9.46819 43.5738 10.5078 44.9906 9.13402C45.1194 9.24541 45.1624 9.3568 45.1624 9.46819C44.9477 8.79984 44.9048 8.09437 44.9477 7.57455C45.6346 7.53742 46.2357 6.72056 46.5362 7.61168C46.1069 7.57455 46.0639 7.94585 45.8493 8.24289L46.5791 7.83446C47.2231 9.13402 45.5917 8.28002 45.5917 9.24541C47.0514 8.83697 48.7258 7.7602 49.7991 8.1315C50.0138 9.39393 47.2231 8.53993 48.6828 9.69097L46.9655 9.20828C48.2535 11.2133 45.9351 9.05976 47.1373 11.2133C49.3698 11.5846 49.6703 10.5821 51.9028 10.9534C52.418 10.2479 51.7311 9.91375 52.2463 9.20828C55.4233 7.94585 54.7364 12.3643 57.0977 10.6935C57.6987 9.83949 57.9563 8.24289 59.5878 9.09688L59.0297 10.5078C61.2192 10.6564 60.2747 8.46567 62.5502 9.43106C62.1638 9.98801 60.8328 9.91375 61.1763 10.0623C62.679 11.139 62.2496 9.20828 63.3659 9.20828L63.5805 10.4707C65.8989 10.285 68.432 9.3568 71.0079 9.13402C70.8791 9.50532 70.4069 9.91375 71.0079 10.285C74.2279 9.65384 77.9201 10.4336 81.0542 11.1762L82.2563 10.0994C82.5139 10.0994 82.7715 10.5821 82.471 10.8049C83.6731 11.2133 82.5139 10.0994 83.115 9.69097C83.8019 9.61671 84.0166 10.3222 83.5872 10.6564C85.7339 9.7281 89.6837 8.65132 91.9592 9.83949L91.5298 10.1737C93.2901 10.6192 93.5047 7.94585 95.1362 8.94837L94.8786 9.13402C98.6996 9.61671 102.907 8.61419 105.826 10.2479C106.385 8.68845 109.605 10.9534 109.862 8.76271C112.052 9.83949 111.408 10.2479 114.499 10.9534C115.315 11.0648 115.701 9.57958 116.731 9.3568L116.774 10.5078L118.148 9.31967L118.878 10.6935L119.823 10.3964C119.436 10.3222 119.007 9.87662 119.093 9.54245C120.595 9.02262 122.699 10.3222 122.742 10.9163L126.262 9.95088C126.177 10.3964 125.576 10.5821 125.146 10.8791C127.035 9.7281 125.49 12.0673 127.207 11.0277C126.992 10.7677 127.336 10.3593 127.379 10.0994C128.237 10.8049 130.169 10.8049 131.629 10.5078L131.371 11.2876C133.99 11.4732 136.867 10.9163 139.786 10.9163C138.756 10.545 138.971 9.17115 139.829 9.05976L140.173 10.285C140.731 9.54245 139.271 9.83949 140.43 8.91123C141.504 9.05976 141.16 10.285 140.559 10.6935L141.89 10.285C141.976 10.6564 141.675 10.842 141.589 11.2876C142.148 10.545 143.865 12.5129 144.681 11.2133L144.767 11.5846C147.686 11.5846 149.017 11.1762 151.421 11.1019C151.464 10.0623 152.409 10.285 153.096 9.43106C154.856 9.76523 156.788 10.5821 158.891 10.5078C160.394 9.98801 159.321 9.61671 160.008 8.98549C160.136 9.95088 162.24 9.83949 161.124 10.545C163.657 10.3964 164.344 10.3593 167.564 9.57958C167.22 9.17115 166.834 9.02262 167.049 8.68845C167.65 8.53993 168.38 9.09688 168.294 9.54245L168.122 9.65384C171.728 8.24289 176.408 12.4386 179.285 10.4336L179.027 10.5078L181.989 9.46819C183.363 9.61671 181.174 10.1737 182.161 10.7677C185.381 9.17115 187.227 10.9905 189.846 9.95088C191.907 12.7728 197.102 9.76523 199.849 11.5475L199.678 10.8791C200.407 10.2479 200.536 11.2504 201.051 11.399C200.966 10.8791 200.279 10.8049 200.708 10.4336C206.762 9.65384 213.159 11.399 219.341 11.993C221.616 12.1787 220.629 8.57706 223.462 10.1365L222.647 11.3618C227.198 9.87662 232.006 11.399 236.471 10.1737C236.213 10.4707 236.213 10.842 235.741 10.8049C236.686 11.696 239.219 10.842 239.262 10.1365C239.949 10.2108 239.433 10.8049 239.863 11.1762C240.807 11.696 242.224 10.0251 242.739 10.9163C242.825 11.0648 242.482 11.2133 242.31 11.2876C243.04 10.8791 245.315 11.399 244.714 10.3964C246.389 10.8791 247.934 9.95088 249.265 10.545C250.124 9.39393 252.142 11.1019 252.399 9.46819C252.27 11.139 255.361 10.8049 256.435 10.0251C256.091 10.545 257.336 10.545 256.95 11.2504C258.152 11.2133 259.268 10.9163 259.054 10.0623C261.286 12.0673 263.519 8.42854 264.807 11.0277C268.413 10.1365 271.719 9.50532 274.982 9.13402C274.853 10.8049 271.418 9.28254 271.547 11.0648C274.638 10.3593 276.399 8.94836 279.447 9.3568C280.22 9.57958 279.017 10.0994 278.717 10.3593C281.765 9.65384 284.642 10.5078 287.389 9.61671C287.389 9.76523 287.089 9.95088 286.788 10.0623C287.346 10.0251 288.033 10.3222 287.99 9.54245L287.475 9.76523C286.617 8.65132 289.622 7.46316 289.708 6.86908C288.806 9.05976 292.412 7.42603 290.953 10.1737C291.296 10.0251 291.769 9.65384 291.683 9.17115C292.198 9.31967 292.37 9.61671 291.854 10.2108C293.786 9.80236 293.099 8.98549 294.86 8.98549C294.86 9.3568 294.516 9.50532 294.302 9.91375C295.203 9.20828 296.062 8.46567 297.564 8.79984C297.479 9.02262 297.65 9.31967 297.221 9.31967C299.754 9.20828 301.557 7.3889 304.305 8.09437C303.489 9.69097 305.249 8.61419 305.378 10.0251L306.881 9.61671L306.28 8.94837C307.568 8.98549 308.727 7.94585 309.886 8.42854L308.813 8.91123L311.26 8.65132L309.886 8.1315C311.217 7.42603 309.757 6.38638 311.475 6.75769C311.131 6.90621 312.806 6.75769 313.45 7.57455C314.094 7.12899 314.781 6.68343 315.725 7.0176C315.983 7.46316 315.51 8.53993 315.682 8.83698C316.326 7.68594 318.73 8.5028 319.546 7.27751C319.288 7.57455 319.246 8.28002 319.331 8.42854L319.847 7.50029C320.448 7.79733 320.534 7.94585 320.448 8.53993C322.251 8.72558 319.89 6.79482 322.036 7.53742C321.864 7.61168 321.95 7.7602 321.607 7.90872C323.796 8.31715 325.814 7.31464 327.789 7.7602C328.39 9.17115 326.029 8.09437 326.716 9.28254C329.592 9.02262 332.684 7.61168 335.474 7.94585L335.045 7.79733C335.431 5.82943 337.106 8.76271 338.522 7.83446C338.179 7.98298 338.05 8.91123 338.179 8.72558C340.068 9.05976 342.086 8.24289 344.962 7.61168L344.619 8.1315C345.735 8.57706 347.581 8.39141 348.783 8.61419C349.127 8.09437 349.814 8.16863 349.384 7.42603C353.12 10.3222 356.511 5.86656 359.86 8.28002C359.474 8.28002 358.915 8.72558 359.216 8.72558L362.05 8.24289C361.835 7.42603 361.706 7.7602 361.105 7.09186C361.449 6.57204 362.264 6.20073 362.951 6.20073C361.663 6.75769 362.951 7.57455 363.509 8.05724C363.423 7.79733 363.595 7.50029 363.552 7.24038C365.012 8.76271 363.81 5.53239 365.828 6.53491L365.742 6.98047C366.515 6.75769 367.202 6.1636 368.017 6.27499C368.361 7.27751 367.202 6.72056 367.159 7.53742C368.318 7.46316 369.434 5.64378 370.464 6.6463C369.992 6.90621 369.262 6.94334 368.79 7.20325C369.906 8.35428 370.035 8.05724 370.894 8.24289L370.808 8.20576L372.74 8.72558L372.225 8.46567C373.641 5.86656 375.144 7.98298 377.076 6.31212C375.187 7.90872 376.776 7.24038 376.604 8.35428C377.076 8.65132 377.849 9.02262 377.634 9.31967C378.536 8.42854 379.137 10.0251 380.425 8.72558C380.468 9.09688 381.412 8.76271 381.198 9.65384C382.4 9.3568 380.897 9.02262 381.026 8.57706C382.872 7.35177 385.319 10.0623 387.938 8.39141C390.256 7.68594 390.686 6.46065 392.789 5.82943C393.519 6.42351 392.188 7.16612 392.188 7.16612C393.348 7.68594 394.206 7.61168 395.28 7.20325C395.065 7.53742 395.28 7.79733 395.623 8.20576C396.482 8.09437 396.181 6.86908 397.34 7.42603C397.126 7.83446 396.911 8.46567 396.482 8.8741C397.512 8.53993 398.5 7.87159 399.573 7.53742C399.873 8.16863 398.929 8.5028 398.542 8.91123C399.745 8.61419 401.634 8.35428 401.977 7.35177L401.204 6.98047C401.634 6.94334 401.419 7.83446 401.118 8.02011C400.088 8.79984 399.659 7.68594 399.573 7.31464L400.346 7.09186C399.573 4.97544 397.34 7.42603 395.795 7.31464L396.439 5.75517L394.893 7.05473C394.55 6.6463 394.335 5.7923 395.065 5.56952C393.992 4.78979 394.12 6.12647 393.176 5.27248C393.09 5.12396 393.133 5.0497 393.219 5.01257L392.146 5.45813C392.36 5.12396 391.974 4.38136 392.618 4.60414C390.729 3.71301 389.527 5.75517 388.84 4.60414L389.011 4.49275C386.392 4.93831 388.754 5.56952 386.779 6.86908L385.448 4.08432L385.19 5.23535C384.933 5.19822 384.375 5.12396 384.461 4.64127C383.43 5.421 384.632 5.12396 384.031 5.86656C382.7 4.82692 380.425 6.34925 380.124 4.52988C379.652 5.38387 381.369 5.19822 379.996 5.7923C379.609 3.86153 378.364 6.12647 377.162 5.23535C377.548 4.23284 378.665 4.75266 377.462 3.86153C376.733 5.56952 375.144 3.49023 374.114 3.8244C374.071 5.16109 371.924 4.38136 370.207 4.82692C370.293 4.38136 367.03 4.08432 365.441 3.60162L365.484 3.37884C365.184 4.75266 363.552 4.49275 362.35 4.75266C362.393 3.9358 362.608 3.60162 363.252 3.26745H362.135C361.921 3.71301 361.577 3.9358 360.847 4.12145L361.148 3.11893C359.645 3.19319 358.143 4.3071 356.254 3.63875C356.125 4.60414 357.756 6.27499 355.738 6.90621C355.653 6.38638 355.61 5.49526 356.125 5.30961C355.953 5.38387 355.524 5.71804 355.18 5.53239L355.996 4.6784C355.137 4.3071 355.524 5.38387 354.837 5.30961C354.837 4.56701 354.322 4.78979 354.408 4.19571C354.579 4.12145 355.009 4.49275 355.266 4.19571C354.493 4.04719 353.549 3.63875 353.205 3.0818C353.291 3.49023 353.205 4.08432 352.647 4.15858C351.145 4.19571 352.132 3.26745 351.273 2.89615C350.93 3.41597 349.985 2.85902 349.943 3.97293C349.513 3.97293 349.427 3.4531 349.256 3.15606C348.483 3.63875 345.649 3.30458 346.551 4.45562L346.765 4.52988C346.723 4.56701 346.68 4.56701 346.637 4.56701C344.104 5.64378 341.399 3.9358 338.909 4.41849V4.04719C337.406 4.45562 335.603 4.3071 334.53 5.08683C334.1 5.08683 333.499 4.41849 333.671 3.97293C332.512 4.23284 332.383 4.6784 330.752 4.04719C331.911 3.41597 330.365 3.49023 331.911 3.56449C330.408 3.30458 330.108 2.7105 328.519 3.71301C329.077 2.78476 327.403 2.52485 326.716 2.82189L327.746 3.49023C326.973 3.63875 326.244 3.52736 325.557 3.4531L325.943 2.22781C322.895 0.742603 320.491 4.78979 318.172 2.26494C317.356 3.11893 319.804 2.85902 319.117 3.89866C317.657 3.71301 316.24 1.93077 315.768 1.93077C313.879 1.26242 314.008 3.75014 311.99 3.26745C312.247 3.71301 312.505 4.90118 311.002 5.30961C309.629 5.16109 309.285 3.4531 310.187 3.11893C310.53 3.0818 310.702 3.23032 310.659 3.37884C311.088 3.23032 311.689 3.04467 311.131 2.56198L310.96 2.97041C310.273 2.52485 308.341 2.56198 308.813 1.85651C307.74 2.26494 308.384 2.56198 309.156 2.82189C307.353 2.19068 306.366 2.78476 304.52 2.37633C304.82 2.63624 305.078 3.11893 304.777 3.11893C302.072 2.56198 303.575 3.97293 301.772 4.15858C300.741 3.49023 302.158 2.56198 300.312 3.11893C299.196 2.67337 300.055 1.9679 300.527 1.5966C298.852 2.45059 297.393 1.03964 296.448 0.891123L297.35 0.519822C296.835 0.742603 296.405 0.742603 295.933 0.705473L296.448 1.5966C295.933 1.44808 295.504 1.44808 295.504 1.07677C294.988 1.67086 295.933 2.52485 294.86 3.34171C294.173 2.89615 292.756 3.8244 292.498 2.63624C294.688 3.04467 292.241 1.44808 294.087 1.26242C293.743 1.41095 293.314 1.41095 292.756 1.22529C292.67 1.07677 292.842 0.965384 292.971 0.928254C290.867 -0.11139 292.026 2.26494 289.837 2.22781C290.094 1.55947 289.321 0.965384 288.978 1.1139C289.837 1.1139 289.407 2.22781 288.591 2.7105C287.218 2.19068 287.089 3.0818 286.359 3.04467L287.175 3.30458C286.874 3.97293 286.187 3.86154 285.243 4.08432C285.157 3.56449 286.101 3.71301 285.758 3.49023C284.728 4.64127 283.354 2.26494 281.851 3.04467C281.164 2.59911 281.765 1.81938 281.164 1.48521C279.49 2.3392 279.361 0.594082 277.601 1.29955C278.116 2.19068 278.202 1.9679 276.957 2.82189L279.833 2.19068L277.987 3.49023C278.846 3.49023 279.833 2.93328 280.348 3.0818C279.447 3.78727 279.576 3.60162 279.962 4.3071C278.76 2.97041 277.601 5.08683 276.227 4.19571L276.27 2.00503C274.209 1.03964 272.578 3.11893 269.873 2.56198L270.731 2.93328C270.388 3.78727 269.057 3.04467 268.198 3.41597C268.284 2.67337 267.726 2.41346 267.383 1.9679C267.426 2.52485 265.408 1.93077 265.15 3.37884L263.948 2.41346C261.758 2.00503 261.458 4.49275 259.354 4.26997C259.998 3.49023 259.054 2.97041 260.428 2.37633C259.741 2.37633 259.097 2.22781 259.097 2.74763C258.667 2.30207 257.165 3.75014 256.521 3.04467C256.22 3.37884 256.134 4.12145 255.361 4.08432C255.276 3.9358 255.361 3.71301 255.361 3.71301C255.361 4.08432 254.116 4.19571 254.803 5.01257C252.657 2.7105 248.793 5.16109 246.904 3.23032C245.444 3.49023 243.598 3.71301 242.224 3.78727C242.31 3.56449 242.224 3.41597 242.482 3.49023C240.593 2.78476 241.322 5.56952 239.133 4.82692C238.017 3.63875 240.292 4.19571 239.605 3.75014C239.305 1.33669 236.986 4.08432 235.527 2.67337L235.87 2.52485C234.754 1.70799 233.122 3.4531 231.319 3.26745C231.319 3.26745 231.405 3.04467 231.319 2.89615C230.074 4.12145 227.713 4.52988 225.952 4.86405C226.511 3.9358 226.768 4.38136 226.425 3.41597C225.652 3.56449 226.639 4.93831 225.094 5.23535C224.579 4.71553 223.462 4.26997 223.291 3.23032L224.793 3.19319C224.021 1.85651 222.861 3.23032 222.089 3.00754L222.174 2.41346C219.899 2.59911 219.856 4.04719 217.409 3.97293L217.666 4.41849C216.336 5.86656 216.55 3.60162 215.219 4.6784L214.833 3.23032C213.931 3.60162 211.742 4.64127 210.153 4.93831C211.055 3.86154 212.901 3.30458 214.06 2.63624C213.201 2.63624 211.098 2.74763 210.625 3.4531C210.969 3.30458 211.441 2.97041 211.785 3.19319C210.711 4.34423 209.295 4.90118 207.577 4.90118C207.878 2.04216 203.026 4.19571 201.781 1.9679C198.69 3.00754 195.685 1.52234 192.079 1.67086C193.367 3.89867 191.048 1.74512 191.263 4.01006C190.447 4.15858 190.104 4.12145 190.018 3.97293L187.485 2.59911C186.884 1.93077 188.257 2.11642 188.215 1.5966C186.368 1.37382 187.442 0.594082 186.197 0C186.454 0.816863 185.553 1.15103 184.522 0.853993L185.982 1.89364C183.406 3.11893 183.792 0 181.217 1.18816L182.032 0.482692C180.701 0.891123 177.138 0.482692 175.85 2.30207C175.635 2.04216 175.292 1.41095 175.893 1.26242C172.716 1.00251 168.852 3.19319 166.405 2.07929L166.662 1.52234C166.061 1.67086 165.632 2.56198 164.902 2.00503C164.945 1.78225 165.16 1.44808 164.859 1.41095C164.559 1.5966 163.314 2.37633 162.498 2.04216L163.185 1.41095C160.094 0.668343 158.462 2.93328 155.886 3.30458C155.886 1.67086 153.482 1.15103 152.28 0.891123L152.323 0.668343C148.716 0.482692 146.226 2.00503 142.92 2.67337C140.86 0.891124 135.922 1.93077 132.617 0.928254C133.132 1.22529 132.531 2.19068 131.93 2.37633C131.157 2.04216 129.783 3.52736 129.912 2.00503L130.169 2.04216C129.568 0.556952 127.98 0.965384 126.735 0.928254L126.52 2.89615C123.257 0 117.976 3.89866 116.173 1.37382C115.4 1.85651 114.413 1.85651 113.64 2.3392L113.683 1.29955C111.494 1.03964 110.42 0.891123 107.715 1.15103L108.274 0.408432C106.771 0.334171 106.342 3.4531 104.968 3.49023L104.538 1.93077C101.877 1.9679 99.2148 0.594082 96.553 2.00503C96.5959 1.78225 96.6818 1.33669 97.1111 1.26242C95.866 1.22529 92.2597 0.185651 92.7319 2.3392C92.689 0.928254 89.9842 2.19068 88.5675 2.82189L88.7821 1.78225C87.58 3.11893 87.5371 3.4531 85.8627 3.8244C85.4763 3.67588 85.5192 3.00754 86.0344 3.26745C84.7035 2.7105 85.004 4.23284 83.3726 3.71301L83.9736 3.04467C82.5998 2.97041 82.7286 3.30458 81.9558 4.08432C81.0971 4.49275 79.3369 3.8244 79.1652 2.89615C78.9934 3.4531 78.2206 4.23284 77.4049 3.97293C77.2761 3.56449 77.5767 3.34171 77.7055 3.26745C75.43 2.56198 74.2708 4.45562 72.7252 3.4531C72.6823 3.11893 72.5964 2.93328 72.4676 2.82189C74.2708 2.85902 75.7735 2.89615 75.6017 2.97041C75.6017 2.00503 74.142 1.85651 75.3012 0.519822C74.0991 1.22529 72.0812 2.78476 70.6645 2.3392C70.5786 2.26494 70.5357 2.15355 70.4927 2.00503L70.6215 1.89364C70.2781 1.78225 69.9775 1.89364 69.7199 2.04216C69.2477 1.89364 68.9901 1.78225 68.5178 1.74512C68.3461 0.965384 66.8434 1.33669 66.1136 1.26242C66.1565 2.30207 65.212 2.15355 66.1136 3.00754C65.9848 2.93328 66.2424 2.89615 66.7576 2.82189C66.8864 2.78476 67.0152 2.78476 67.0581 2.7105C67.0581 2.74763 67.0152 2.78476 67.0152 2.78476C67.4874 2.74763 68.1314 2.74763 68.8613 2.7105C68.2602 3.23032 67.6592 3.67588 66.8434 3.11893C66.457 3.78727 66.0706 4.49275 65.813 4.78979C64.8256 3.34171 62.8507 2.56198 62.5931 1.63373C60.3606 2.22781 57.3124 2.00503 55.8956 3.97293C55.2516 4.23284 55.1657 3.41597 54.9081 3.11893C55.2945 2.93328 55.7238 2.97041 55.8956 2.67337C54.6076 3.19319 52.1175 2.85902 51.8169 4.23284C50.2284 3.60162 52.7185 2.97041 50.529 3.19319L50.8295 2.78476C46.4933 0.594082 43.7456 6.27499 38.9371 3.4531C39.2806 3.75014 39.4523 3.8244 39.5382 4.08432C34.0428 2.85902 28.2039 5.23535 22.7944 3.26745C21.2488 2.85902 21.077 3.75014 20.1325 4.41849L19.7891 3.30458L18.2005 4.56701C15.9251 5.53239 14.2507 1.81938 11.3742 3.63875L11.7606 4.38136C10.6873 4.23284 8.45479 4.82692 8.62652 3.9358C8.54065 4.08432 8.28306 4.75266 7.89666 4.34423L7.85373 3.75014L5.32069 4.75266C3.34578 4.34423 5.62122 2.41346 2.74472 2.30207C1.6714 2.56198 -0.303511 4.04719 0.0828848 4.41849C0.512213 4.45562 1.19914 4.78979 1.19914 5.38387L0.254638 5.68091C0.0829063 7.42603 -0.689906 9.17115 1.71433 10.3964L3.38871 9.3568L3.94684 10.2108H2.53006C3.34578 10.9905 3.81804 10.285 4.4191 9.83949C4.5479 10.285 4.8055 10.5821 5.10603 10.7677L6.73747 9.13402C6.95214 9.76523 6.00761 10.4336 7.12387 10.8049C7.89666 10.0251 6.39401 9.28253 7.63906 8.79984C8.45479 9.57958 8.19719 10.2108 9.14171 9.54245C9.27051 9.98801 9.05585 10.285 8.71238 10.4707C9.57104 9.95088 10.9449 10.2479 11.3742 9.31967C12.1899 10.285 14.2078 9.05976 14.1219 10.6935C14.3795 10.285 15.5816 9.39393 16.3544 9.3568C14.9376 11.3247 19.2309 9.46819 18.8445 11.5846C19.8749 9.83949 22.5797 10.8049 24.4258 9.83949C24.3399 9.95088 24.1682 10.2479 23.9965 10.1737C25.0269 10.285 25.3274 10.842 25.9714 11.1762C26.1002 9.7281 27.7316 9.39393 28.5903 8.5028C29.8783 9.91375 27.8175 10.2108 28.2039 11.5475C28.161 10.3593 30.4364 10.3593 30.0071 9.39393C30.9945 10.2479 30.8657 9.80236 31.338 11.0277C31.5097 9.20828 32.2396 10.7306 33.0553 9.61671C34.4721 10.5078 33.3988 11.3247 34.9443 10.7677C35.7171 11.2876 34.3433 11.9188 34.3433 11.9188ZM71.0509 8.79984C70.7503 8.83697 70.4498 8.8741 70.2781 8.8741C70.4498 8.83698 70.6645 8.83697 71.0509 8.79984ZM74.142 8.76271C73.7556 8.72558 73.2834 8.72558 72.8111 8.72558C72.6823 8.35428 72.8111 7.98298 73.1116 8.02011C72.9399 8.24289 73.6698 8.46567 74.142 8.76271ZM67.6162 1.52234C68.0885 1.37382 68.2602 1.5966 68.3461 1.78225C68.1314 1.78225 67.8309 1.81938 67.4874 1.89364C67.4874 1.93077 67.4445 1.9679 67.4445 2.00503C67.4445 1.85651 67.5304 1.67086 67.6162 1.52234Z" fill="#81F297"/>
<path d="M66.7147 2.89615C66.6717 2.93328 66.6288 2.97041 66.5429 2.97041C66.6288 3.04467 66.7576 3.15606 66.8435 3.19319C66.8864 3.0818 66.9723 2.97041 67.0152 2.85902C66.8864 2.89615 66.8005 2.89615 66.7147 2.89615Z" fill="#81F297"/>
<path d="M346.551 4.45562L346.465 4.41849C346.508 4.45562 346.551 4.49275 346.594 4.56701C346.551 4.52988 346.551 4.49275 346.551 4.45562Z" fill="#81F297"/>
<path d="M116.774 10.7677L116.774 10.5078L116.474 10.7306L116.774 10.7677Z" fill="#81F297"/>
<path d="M363.552 8.02011C363.595 8.09437 363.638 8.20576 363.767 8.28002C363.767 8.24289 363.638 8.1315 363.552 8.02011Z" fill="#81F297"/>
<path d="M370.894 8.28002L371.924 8.65132C371.452 8.42854 371.151 8.31715 370.894 8.28002Z" fill="#81F297"/>
<path d="M376.518 8.79984C376.604 8.61419 376.604 8.46567 376.647 8.35428L376.518 8.79984Z" fill="#81F297"/>
<path d="M286.745 10.0251C286.66 10.0251 286.574 10.0623 286.531 10.0623C286.016 10.2479 286.359 10.1737 286.745 10.0251Z" fill="#81F297"/>
<path d="M313.45 7.57455C313.149 7.7602 312.891 7.94585 312.591 8.05724C313.063 8.1315 313.45 8.16863 313.45 7.57455Z" fill="#81F297"/>
<path d="M256.907 11.2876C256.907 11.2504 256.907 11.2504 256.907 11.2876C256.864 11.2876 256.778 11.2876 256.735 11.2876H256.907Z" fill="#81F297"/>
<path d="M311.346 8.05724C311.818 8.28002 312.205 8.20576 312.591 8.05724C312.205 7.98298 311.775 7.90872 311.346 8.05724Z" fill="#81F297"/>
<path d="M400.99 9.24541L401.247 9.28254C401.247 9.20828 401.247 9.17115 401.29 9.09689L400.99 9.24541Z" fill="#81F297"/>
<path d="M401.29 9.13402L401.591 9.02262C401.462 9.02262 401.333 9.02262 401.29 9.13402Z" fill="#81F297"/>
<path d="M402.235 8.76271L401.591 9.02262C401.805 9.02262 402.106 9.05975 402.235 8.76271Z" fill="#81F297"/>
<path d="M393.519 8.76271L393.434 9.13402C393.476 9.09688 393.519 8.94836 393.519 8.76271Z" fill="#81F297"/>
<path d="M391.244 8.8741C391.802 8.94837 392.618 9.69097 393.348 9.43106L393.434 9.13402C393.09 9.7281 391.759 8.24289 391.244 8.8741Z" fill="#81F297"/>
<path d="M381.756 4.19571L383.645 4.49275C383.301 4.08432 382.872 3.56449 383.731 3.4531C381.369 2.26494 384.246 4.38136 381.756 4.19571Z" fill="#81F297"/>
<path d="M375.874 3.63875C376.904 3.4531 375.874 3.04467 375.917 2.82189C375.273 3.19319 375.101 3.26745 375.874 3.63875Z" fill="#81F297"/>
<path d="M333.199 3.63875L333.285 2.67337C332.512 2.82189 333.328 3.04467 333.199 3.63875Z" fill="#81F297"/>
<path d="M325.084 8.53993L325.814 9.13402L326.201 8.24289L325.084 8.53993Z" fill="#81F297"/>
<path d="M320.233 1.78225L320.576 1.63373L319.288 1.9679L320.233 1.78225Z" fill="#81F297"/>
<path d="M248.621 2.11642L248.879 3.30458C249.394 3.04467 249.523 1.74512 248.621 2.11642Z" fill="#81F297"/>
<path d="M217.709 3.30458C217.366 2.7105 216.507 2.3392 215.949 2.93328C216.636 2.97041 217.366 3.4531 217.709 3.30458Z" fill="#81F297"/>
<path d="M124.975 1.37382L125.576 1.00251L124.416 1.33669L124.975 1.37382Z" fill="#81F297"/>
</svg>
