<svg width="175" height="12" viewBox="0 0 175 12" fill="none" xmlns="http://www.w3.org/2000/svg">
<path d="M174.958 8.46567C175.05 8.16863 174.995 7.42603 174.755 7.57455L174.571 8.79984L174.958 8.46567Z" fill="#FA668C"/>
<path d="M173.264 6.20073C172.969 6.79482 172.619 7.83446 172.822 8.98549C173.116 7.79733 173.19 8.28002 173.503 6.90621C173.761 6.75769 173.945 7.31464 173.908 7.7602C174 7.46316 174.295 8.02011 174.442 7.24038C174.111 6.27499 173.687 6.23786 173.264 7.05473C173.153 6.75769 173.227 6.42351 173.264 6.20073Z" fill="#FA668C"/>
<path d="M148.441 4.26997L148.605 4.41849C148.569 4.34423 148.514 4.3071 148.441 4.26997Z" fill="#FA668C"/>
<path d="M133.083 3.60162C133.192 3.56449 133.247 3.4531 133.247 3.34171C133.138 3.41597 133.046 3.49023 133.083 3.60162Z" fill="#FA668C"/>
<path d="M130.449 2.26494C130.504 2.30207 130.559 2.3392 130.596 2.3392C130.541 2.22781 130.486 2.15355 130.449 2.26494Z" fill="#FA668C"/>
<path d="M148.441 4.26997L148.035 3.89866C148.017 4.3071 148.256 4.19571 148.441 4.26997Z" fill="#FA668C"/>
<path d="M169.839 9.17115C169.931 9.09689 170.004 8.9855 170.06 8.83697C169.986 8.87411 169.912 8.94836 169.857 8.94836C169.839 9.02263 169.839 9.09689 169.839 9.17115Z" fill="#FA668C"/>
<path d="M155.217 3.30458H155.346C155.383 3.15606 155.42 3.00754 155.457 2.82189L155.217 3.30458Z" fill="#FA668C"/>
<path d="M160.429 3.0818C160.318 3.04467 160.263 4.08432 160.226 4.52988C160.3 4.08432 160.373 3.89867 160.484 3.82441C160.484 3.63875 160.465 3.41597 160.429 3.0818Z" fill="#FA668C"/>
<path d="M168.678 4.93831L168.825 4.78979C168.77 4.82692 168.715 4.86405 168.678 4.93831Z" fill="#FA668C"/>
<path d="M151.497 3.04467C151.497 2.89615 151.479 2.74763 151.442 2.67337C151.461 2.82189 151.479 2.93328 151.497 3.04467Z" fill="#FA668C"/>
<path d="M6.05905 10.9163C6.05905 10.842 6.05905 10.8049 6.05905 10.7306C6.02058 10.842 6.00134 10.9163 6.05905 10.9163Z" fill="#FA668C"/>
<path d="M0.0173397 5.75517L0.108887 5.68091C0.108887 5.49526 0.127197 5.27248 0.127197 5.08683L0.0173397 5.75517Z" fill="#FA668C"/>
<path d="M125.643 0.928254C125.661 0.928254 125.661 0.928254 125.661 0.965384C125.79 0.816863 125.716 0.853993 125.643 0.928254Z" fill="#FA668C"/>
<path d="M81.5581 1.67086C82.0553 2.59911 80.7479 2.85902 81.5029 3.89867C81.4292 3.52736 82.1842 2.30207 81.5581 1.67086Z" fill="#FA668C"/>
<path d="M169.71 9.02262C169.636 9.02262 169.562 9.05976 169.489 9.02262C169.581 9.05976 169.654 9.05976 169.71 9.02262Z" fill="#FA668C"/>
<path d="M81.5029 3.9358L81.5761 4.04719C81.5395 3.97293 81.5212 3.97293 81.5029 3.9358Z" fill="#FA668C"/>
<path d="M114.576 1.55947C114.594 1.74512 114.649 1.89364 114.686 2.00503C114.686 1.89364 114.667 1.78225 114.576 1.55947Z" fill="#FA668C"/>
<path d="M122.826 3.04467L122.623 2.89615C122.697 2.97041 122.77 3.00754 122.826 3.04467Z" fill="#FA668C"/>
<path d="M110.304 3.00754C110.193 2.93328 110.156 2.78476 110.009 2.93328C110.027 2.97041 110.046 3.00754 110.046 3.04467C110.101 2.93328 110.175 2.85902 110.304 3.00754Z" fill="#FA668C"/>
<path d="M105.847 3.00754C105.866 3.0818 105.902 3.15606 105.921 3.23032C105.958 3.19319 106.013 3.19319 106.068 3.15606L105.847 3.00754Z" fill="#FA668C"/>
<path d="M19.5924 10.3964C19.5003 10.0994 19.4266 9.76523 19.3898 9.46819C19.4635 10.2108 18.8005 10.4707 19.5924 10.3964Z" fill="#FA668C"/>
<path d="M169.838 8.57706C169.82 8.83697 169.783 8.98549 169.71 9.02262C169.765 9.02262 169.802 8.9855 169.857 8.94836C169.857 8.79984 169.856 8.68845 169.838 8.57706Z" fill="#FA668C"/>
<path d="M110.119 11.2504L109.42 11.1019C109.604 11.2133 109.862 11.2504 110.119 11.2504Z" fill="#FA668C"/>
<path d="M51.5595 10.2479L51.3947 10.3964C51.4496 10.3964 51.5046 10.3593 51.5595 10.2479Z" fill="#FA668C"/>
<path d="M107.32 11.2504C107.191 10.8791 107.063 10.6564 106.915 10.545C106.878 10.6192 106.86 10.6935 106.842 10.8049L107.32 11.2504Z" fill="#FA668C"/>
<path d="M14.7311 11.9188C15.4124 11.9559 15.0441 10.5821 15.1914 9.80236C16.0017 9.43106 15.5597 10.8049 15.836 11.5103C16.3332 11.139 16.7199 9.87662 17.0882 9.95088C17.125 10.1737 17.1987 10.2479 17.1066 10.545C17.6406 9.46819 18.6903 10.5078 19.2979 9.13401C19.3532 9.24541 19.3716 9.3568 19.3716 9.46819C19.2795 8.79984 19.2611 8.09437 19.2795 7.57455C19.5742 7.53742 19.832 6.72056 19.9609 7.61168C19.7767 7.57455 19.7583 7.94585 19.6662 8.24289L19.9793 7.83446C20.2555 9.13401 19.5557 8.28002 19.5557 9.24541C20.1819 8.83697 20.9 7.7602 21.3604 8.1315C21.4525 9.39393 20.2555 8.53993 20.8816 9.69097L20.145 9.20828C20.6975 11.2133 19.7031 9.05975 20.2187 11.2133C21.1762 11.5846 21.3052 10.5821 22.2627 10.9534C22.4837 10.2479 22.1891 9.91375 22.41 9.20828C23.7727 7.94585 23.4781 12.3643 24.4909 10.6935C24.7487 9.83949 24.8592 8.24289 25.559 9.09688L25.3196 10.5078C26.2587 10.6564 25.8536 8.46567 26.8296 9.43106C26.6639 9.98801 26.093 9.91375 26.2403 10.0623C26.8848 11.139 26.7007 9.20828 27.1795 9.20828L27.2715 10.4707C28.2659 10.285 29.3524 9.3568 30.4573 9.13401C30.4021 9.50532 30.1995 9.91375 30.4573 10.285C31.8384 9.65384 33.4221 10.4336 34.7664 11.1762L35.282 10.0994C35.3925 10.0994 35.503 10.5821 35.3741 10.8049C35.8897 11.2133 35.3925 10.0994 35.6503 9.69097C35.9449 9.61671 36.037 10.3222 35.8528 10.6564C36.7736 9.7281 38.4677 8.65132 39.4437 9.83949L39.2596 10.1737C40.0146 10.6192 40.1067 7.94585 40.8064 8.94836L40.6959 9.13401C42.3348 9.61671 44.1395 8.61419 45.3917 10.2479C45.6311 8.68845 47.0122 10.9534 47.1227 8.76271C48.0618 9.83949 47.7856 10.2479 49.1115 10.9534C49.4614 11.0648 49.6271 9.57958 50.0691 9.3568L50.0875 10.5078L50.6767 9.31967L50.9898 10.6935L51.3947 10.3964C51.229 10.3222 51.045 9.87662 51.0819 9.54245C51.7264 9.02262 52.6287 10.3222 52.6471 10.9163L54.1571 9.95088C54.1203 10.3964 53.8625 10.5821 53.6784 10.8791C54.4886 9.7281 53.8257 12.0673 54.5623 11.0277C54.4702 10.7677 54.6175 10.3593 54.6359 10.0994C55.0042 10.8049 55.8329 10.8049 56.459 10.5078L56.3485 11.2876C57.4718 11.4732 58.7056 10.9163 59.9578 10.9163C59.5158 10.545 59.6079 9.17115 59.9762 9.05975L60.1235 10.285C60.3629 9.54245 59.7368 9.83949 60.234 8.91123C60.6944 9.05975 60.5471 10.285 60.2893 10.6935L60.8601 10.285C60.8969 10.6564 60.768 10.842 60.7312 11.2876C60.9706 10.545 61.7072 12.5129 62.0571 11.2133L62.0939 11.5846C63.3461 11.5846 63.917 11.1762 64.9482 11.1019C64.9666 10.0623 65.3717 10.285 65.6664 9.43106C66.4214 9.76523 67.25 10.5821 68.1524 10.5078C68.7969 9.98801 68.3365 9.61671 68.6312 8.98549C68.6864 9.95088 69.5887 9.83949 69.1099 10.545C70.1964 10.3964 70.491 10.3593 71.8722 9.57958C71.7248 9.17114 71.5591 9.02262 71.6512 8.68845C71.909 8.53993 72.222 9.09688 72.1852 9.54245L72.1116 9.65384C73.6584 8.24289 75.6656 12.4386 76.8994 10.4336L76.7889 10.5078L78.0595 9.46819C78.6488 9.61671 77.7096 10.1737 78.1332 10.7677C79.5143 9.17115 80.3061 10.9905 81.4294 9.95088C82.3133 12.7728 84.5415 9.76523 85.7201 11.5475L85.6464 10.8791C85.9595 10.2479 86.0147 11.2504 86.2357 11.399C86.1989 10.8791 85.9042 10.8049 86.0884 10.4336C88.6849 9.65384 91.4287 11.399 94.0804 11.993C95.0564 12.1787 94.6328 8.57706 95.8482 10.1365L95.4983 11.3618C97.4503 9.87662 99.5128 11.399 101.428 10.1737C101.317 10.4707 101.317 10.842 101.115 10.8049C101.52 11.696 102.606 10.842 102.625 10.1365C102.919 10.2108 102.699 10.8049 102.883 11.1762C103.288 11.696 103.895 10.0251 104.116 10.9163C104.153 11.0648 104.006 11.2133 103.932 11.2876C104.245 10.8791 105.221 11.399 104.964 10.3964C105.682 10.8791 106.344 9.95088 106.915 10.545C107.284 9.39393 108.149 11.1019 108.26 9.46819C108.205 11.139 109.53 10.8049 109.991 10.0251C109.843 10.545 110.377 10.545 110.212 11.2504C110.727 11.2133 111.206 10.9163 111.114 10.0623C112.072 12.0673 113.029 8.42854 113.582 11.0277C115.128 10.1365 116.546 9.50532 117.946 9.13401C117.891 10.8049 116.418 9.28254 116.473 11.0648C117.799 10.3593 118.554 8.94836 119.861 9.3568C120.193 9.57958 119.677 10.0994 119.548 10.3593C120.855 9.65384 122.089 10.5078 123.268 9.61671C123.268 9.76523 123.139 9.95088 123.01 10.0623C123.249 10.0251 123.544 10.3222 123.526 9.54245L123.305 9.76523C122.936 8.65132 124.225 7.46316 124.262 6.86908C123.876 9.05975 125.422 7.42603 124.796 10.1737C124.944 10.0251 125.146 9.65384 125.109 9.17115C125.33 9.31967 125.404 9.61671 125.183 10.2108C126.012 9.80236 125.717 8.98549 126.472 8.98549C126.472 9.3568 126.325 9.50532 126.233 9.91375C126.619 9.20828 126.988 8.46567 127.632 8.79984C127.595 9.02262 127.669 9.31967 127.485 9.31967C128.571 9.20828 129.345 7.3889 130.523 8.09437C130.173 9.69097 130.928 8.61419 130.984 10.0251L131.628 9.61671L131.37 8.94836C131.923 8.98549 132.42 7.94585 132.917 8.42854L132.457 8.91123L133.506 8.65132L132.917 8.1315C133.488 7.42603 132.862 6.38638 133.599 6.75769C133.451 6.90621 134.169 6.75769 134.446 7.57455C134.722 7.12899 135.016 6.68343 135.422 7.0176C135.532 7.46316 135.33 8.53993 135.403 8.83697C135.679 7.68594 136.711 8.5028 137.06 7.27751C136.95 7.57455 136.932 8.28002 136.968 8.42854L137.189 7.50029C137.447 7.79733 137.484 7.94585 137.447 8.53993C138.221 8.72558 137.208 6.79482 138.129 7.53742C138.055 7.61168 138.092 7.7602 137.944 7.90872C138.884 8.31715 139.749 7.31464 140.596 7.7602C140.854 9.17114 139.841 8.09437 140.136 9.28254C141.37 9.02262 142.695 7.61168 143.892 7.94585L143.708 7.79733C143.874 5.82943 144.592 8.76271 145.2 7.83446C145.053 7.98298 144.997 8.91123 145.053 8.72558C145.863 9.05975 146.728 8.24289 147.962 7.61168L147.815 8.1315C148.294 8.57706 149.085 8.39141 149.601 8.61419C149.748 8.09437 150.043 8.16863 149.859 7.42603C151.461 10.3222 152.916 5.86656 154.352 8.28002C154.186 8.28002 153.947 8.72558 154.076 8.72558L155.291 8.24289C155.199 7.42603 155.144 7.7602 154.886 7.09186C155.033 6.57204 155.383 6.20073 155.678 6.20073C155.125 6.75769 155.678 7.57455 155.917 8.05724C155.88 7.79733 155.954 7.50029 155.936 7.24038C156.562 8.76271 156.046 5.53239 156.912 6.53491L156.875 6.98047C157.206 6.75769 157.501 6.1636 157.851 6.27499C157.998 7.27751 157.501 6.72056 157.482 7.53742C157.98 7.46316 158.458 5.64378 158.9 6.6463C158.698 6.90621 158.385 6.94334 158.182 7.20325C158.661 8.35428 158.716 8.05724 159.085 8.24289L159.048 8.20576L159.876 8.72558L159.655 8.46567C160.263 5.86656 160.908 7.98298 161.736 6.31212C160.926 7.90872 161.607 7.24038 161.534 8.35428C161.736 8.65132 162.068 9.02262 161.976 9.31967C162.362 8.42854 162.62 10.0251 163.173 8.72558C163.191 9.09688 163.596 8.76271 163.504 9.65384C164.02 9.3568 163.375 9.02262 163.43 8.57706C164.222 7.35177 165.272 10.0623 166.395 8.39141C167.39 7.68594 167.574 6.46065 168.476 5.82943C168.789 6.42351 168.218 7.16612 168.218 7.16612C168.716 7.68594 169.084 7.61168 169.544 7.20325C169.452 7.53742 169.544 7.79733 169.692 8.20576C170.06 8.09437 169.931 6.86908 170.428 7.42603C170.336 7.83446 170.244 8.46567 170.06 8.8741C170.502 8.53993 170.925 7.87159 171.386 7.53742C171.515 8.16863 171.109 8.5028 170.944 8.91123C171.459 8.61419 172.27 8.35428 172.417 7.35177L172.085 6.98047C172.27 6.94334 172.177 7.83446 172.049 8.02011C171.607 8.79984 171.422 7.68594 171.386 7.31464L171.717 7.09186C171.386 4.97544 170.428 7.42603 169.765 7.31464L170.041 5.75517L169.378 7.05473C169.231 6.6463 169.139 5.7923 169.452 5.56952C168.992 4.78979 169.047 6.12647 168.642 5.27248C168.605 5.12396 168.623 5.0497 168.66 5.01257L168.2 5.45813C168.292 5.12396 168.126 4.38136 168.402 4.60414C167.592 3.71301 167.077 5.75517 166.782 4.60414L166.856 4.49275C165.732 4.93831 166.745 5.56952 165.898 6.86908L165.327 4.08432L165.217 5.23535C165.106 5.19822 164.867 5.12396 164.904 4.64127C164.462 5.421 164.977 5.12396 164.719 5.86656C164.149 4.82692 163.173 6.34925 163.044 4.52988C162.841 5.38387 163.578 5.19822 162.989 5.7923C162.823 3.86153 162.289 6.12647 161.773 5.23535C161.939 4.23284 162.418 4.75266 161.902 3.86153C161.589 5.56952 160.908 3.49023 160.466 3.8244C160.447 5.16109 159.527 4.38136 158.79 4.82692C158.827 4.38136 157.427 4.08432 156.746 3.60162L156.764 3.37884C156.635 4.75266 155.936 4.49275 155.42 4.75266C155.438 3.9358 155.531 3.60162 155.807 3.26745H155.328C155.236 3.71301 155.089 3.9358 154.776 4.12145L154.904 3.11893C154.26 3.19319 153.615 4.3071 152.805 3.63875C152.75 4.60414 153.45 6.27499 152.584 6.90621C152.547 6.38638 152.529 5.49526 152.75 5.30961C152.676 5.38387 152.492 5.71804 152.345 5.53239L152.695 4.6784C152.326 4.3071 152.492 5.38387 152.197 5.30961C152.197 4.56701 151.976 4.78979 152.013 4.19571C152.087 4.12145 152.271 4.49275 152.382 4.19571C152.05 4.04719 151.645 3.63875 151.498 3.0818C151.535 3.49023 151.498 4.08432 151.258 4.15858C150.614 4.19571 151.037 3.26745 150.669 2.89615C150.522 3.41597 150.117 2.85902 150.098 3.97293C149.914 3.97293 149.877 3.4531 149.804 3.15606C149.472 3.63875 148.257 3.30458 148.643 4.45562L148.735 4.52988C148.717 4.56701 148.699 4.56701 148.68 4.56701C147.594 5.64378 146.434 3.9358 145.366 4.41849V4.04719C144.721 4.45562 143.948 4.3071 143.487 5.08683C143.303 5.08683 143.045 4.41849 143.119 3.97293C142.622 4.23284 142.567 4.6784 141.867 4.04719C142.364 3.41597 141.701 3.49023 142.364 3.56449C141.719 3.30458 141.591 2.7105 140.909 3.71301C141.149 2.78476 140.43 2.52485 140.136 2.82189L140.578 3.49023C140.246 3.63875 139.933 3.52736 139.639 3.4531L139.804 2.22781C138.497 0.742603 137.466 4.78979 136.471 2.26494C136.121 3.11893 137.171 2.85902 136.876 3.89866C136.25 3.71301 135.643 1.93077 135.44 1.93077C134.63 1.26242 134.685 3.75014 133.819 3.26745C133.93 3.71301 134.04 4.90118 133.396 5.30961C132.807 5.16109 132.659 3.4531 133.046 3.11893C133.193 3.0818 133.267 3.23032 133.249 3.37884C133.433 3.23032 133.691 3.04467 133.451 2.56198L133.378 2.97041C133.083 2.52485 132.254 2.56198 132.457 1.85651C131.996 2.26494 132.273 2.56198 132.604 2.82189C131.831 2.19068 131.407 2.78476 130.615 2.37633C130.744 2.63624 130.855 3.11893 130.726 3.11893C129.566 2.56198 130.21 3.97293 129.437 4.15858C128.995 3.49023 129.602 2.56198 128.811 3.11893C128.332 2.67337 128.7 1.9679 128.903 1.5966C128.185 2.45059 127.558 1.03964 127.153 0.891123L127.54 0.519822C127.319 0.742603 127.135 0.742603 126.932 0.705473L127.153 1.5966C126.932 1.44808 126.748 1.44808 126.748 1.07677C126.527 1.67086 126.932 2.52485 126.472 3.34171C126.177 2.89615 125.57 3.8244 125.459 2.63624C126.398 3.04467 125.349 1.44808 126.141 1.26242C125.993 1.41095 125.809 1.41095 125.57 1.22529C125.533 1.07677 125.606 0.965384 125.662 0.928254C124.759 -0.11139 125.257 2.26494 124.317 2.22781C124.428 1.55947 124.096 0.965384 123.949 1.1139C124.317 1.1139 124.133 2.22781 123.783 2.7105C123.194 2.19068 123.139 3.0818 122.826 3.04467L123.176 3.30458C123.047 3.97293 122.752 3.86154 122.347 4.08432C122.31 3.56449 122.715 3.71301 122.568 3.49023C122.126 4.64127 121.537 2.26494 120.892 3.04467C120.598 2.59911 120.855 1.81938 120.598 1.48521C119.879 2.3392 119.824 0.594082 119.069 1.29955C119.29 2.19068 119.327 1.9679 118.793 2.82189L120.027 2.19068L119.235 3.49023C119.603 3.49023 120.027 2.93328 120.248 3.0818C119.861 3.78727 119.916 3.60162 120.082 4.3071C119.566 2.97041 119.069 5.08683 118.48 4.19571L118.498 2.00503C117.614 1.03964 116.915 3.11893 115.755 2.56198L116.123 2.93328C115.976 3.78727 115.405 3.04467 115.036 3.41597C115.073 2.67337 114.834 2.41346 114.687 1.9679C114.705 2.52485 113.839 1.93077 113.729 3.37884L113.213 2.41346C112.274 2.00503 112.145 4.49275 111.243 4.26997C111.519 3.49023 111.114 2.97041 111.703 2.37633C111.409 2.37633 111.132 2.22781 111.132 2.74763C110.948 2.30207 110.304 3.75014 110.028 3.04467C109.899 3.37884 109.862 4.12145 109.53 4.08432C109.494 3.9358 109.53 3.71301 109.53 3.71301C109.53 4.08432 108.996 4.19571 109.291 5.01257C108.37 2.7105 106.713 5.16109 105.903 3.23032C105.277 3.49023 104.485 3.71301 103.895 3.78727C103.932 3.56449 103.895 3.41597 104.006 3.49023C103.196 2.78476 103.509 5.56952 102.57 4.82692C102.091 3.63875 103.067 4.19571 102.772 3.75014C102.643 1.33669 101.649 4.08432 101.023 2.67337L101.17 2.52485C100.691 1.70799 99.9915 3.4531 99.2181 3.26745C99.2181 3.26745 99.255 3.04467 99.2181 2.89615C98.6841 4.12145 97.6713 4.52988 96.9163 4.86405C97.1557 3.9358 97.2661 4.38136 97.1188 3.41597C96.7874 3.56449 97.2109 4.93831 96.548 5.23535C96.327 4.71553 95.8482 4.26997 95.7746 3.23032L96.4191 3.19319C96.0876 1.85651 95.5904 3.23032 95.2589 3.00754L95.2958 2.41346C94.3198 2.59911 94.3014 4.04719 93.2517 3.97293L93.3622 4.41849C92.7914 5.86656 92.8834 3.60162 92.3126 4.6784L92.1468 3.23032C91.7601 3.60162 90.821 4.64127 90.1396 4.93831C90.5263 3.86154 91.3182 3.30458 91.8154 2.63624C91.4471 2.63624 90.5448 2.74763 90.3422 3.4531C90.4895 3.30458 90.6921 2.97041 90.8394 3.19319C90.379 4.34423 89.7713 4.90118 89.0347 4.90118C89.1636 2.04216 87.0828 4.19571 86.5487 1.9679C85.2229 3.00754 83.9338 1.52234 82.387 1.67086C82.9394 3.89867 81.945 1.74512 82.0371 4.01006C81.6872 4.15858 81.5399 4.12145 81.5031 3.97293L80.4166 2.59911C80.1588 1.93077 80.7481 2.11642 80.7297 1.5966C79.9378 1.37382 80.3982 0.594082 79.8642 0C79.9747 0.816863 79.588 1.15103 79.146 0.853993L79.7721 1.89364C78.6672 3.11893 78.8329 0 77.7281 1.18816L78.0779 0.482692C77.5071 0.891123 75.9787 0.482692 75.4262 2.30207C75.3341 2.04216 75.1868 1.41095 75.4446 1.26242C74.0819 1.00251 72.4246 3.19319 71.375 2.07929L71.4855 1.52234C71.2276 1.67086 71.0435 2.56198 70.7304 2.00503C70.7489 1.78225 70.8409 1.44808 70.712 1.41095C70.5831 1.5966 70.0491 2.37633 69.6992 2.04216L69.9938 1.41095C68.668 0.668343 67.9682 2.93328 66.8633 3.30458C66.8633 1.67086 65.8321 1.15103 65.3165 0.891123L65.3349 0.668343C63.7881 0.482692 62.72 2.00503 61.3021 2.67337C60.4182 0.891124 58.3005 1.93077 56.8825 0.928254C57.1035 1.22529 56.8457 2.19068 56.5879 2.37633C56.2564 2.04216 55.6671 3.52736 55.7224 2.00503L55.8329 2.04216C55.5751 0.556952 54.8937 0.965384 54.3597 0.928254L54.2676 2.89615C52.8681 0 50.6031 3.89867 49.8297 1.37382C49.4982 1.85651 49.0747 1.85651 48.7432 2.3392L48.7616 1.29955C47.8224 1.03964 47.3621 0.891123 46.2019 1.15103L46.4413 0.408432C45.7968 0.334171 45.6127 3.4531 45.0234 3.49023L44.8393 1.93077C43.6975 1.9679 42.5558 0.594082 41.4141 2.00503C41.4325 1.78225 41.4693 1.33669 41.6535 1.26242C41.1195 1.22529 39.5726 0.185651 39.7752 2.3392C39.7568 0.928254 38.5966 2.19068 37.989 2.82189L38.081 1.78225C37.5654 3.11893 37.547 3.4531 36.8288 3.8244C36.6631 3.67588 36.6815 3.00754 36.9025 3.26745C36.3316 2.7105 36.4605 4.23284 35.7608 3.71301L36.0186 3.04467C35.4293 2.97041 35.4845 3.30458 35.1531 4.08432C34.7848 4.49275 34.0298 3.8244 33.9561 2.89615C33.8825 3.4531 33.551 4.23284 33.2011 3.97293C33.1459 3.56449 33.2748 3.34171 33.33 3.26745C32.354 2.56198 31.8568 4.45562 31.1939 3.4531C31.1755 3.11893 31.1386 2.93328 31.0834 2.82189C31.8568 2.85902 32.5013 2.89615 32.4277 2.97041C32.4277 2.00503 31.8016 1.85651 32.2988 0.519822C31.7832 1.22529 30.9177 2.78476 30.31 2.3392C30.2732 2.26494 30.2547 2.15355 30.2363 2.00503L30.2916 1.89364C30.1443 1.78225 30.0153 1.89364 29.9049 2.04216C29.7023 1.89364 29.5918 1.78225 29.3892 1.74512C29.3156 0.965384 28.6711 1.33669 28.358 1.26242C28.3764 2.30207 27.9713 2.15355 28.358 3.00754C28.3028 2.93328 28.4133 2.89615 28.6342 2.82189C28.6895 2.78476 28.7447 2.78476 28.7631 2.7105C28.7631 2.74763 28.7447 2.78476 28.7447 2.78476C28.9473 2.74763 29.2235 2.74763 29.5366 2.7105C29.2788 3.23032 29.0209 3.67588 28.6711 3.11893C28.5053 3.78727 28.3396 4.49275 28.2291 4.78979C27.8056 3.34171 26.9585 2.56198 26.848 1.63373C25.8904 2.22781 24.583 2.00503 23.9753 3.97293C23.6991 4.23284 23.6622 3.41597 23.5518 3.11893C23.7175 2.93328 23.9016 2.97041 23.9753 2.67337C23.4229 3.19319 22.3548 2.85902 22.2259 4.23284C21.5445 3.60162 22.6126 2.97041 21.6734 3.19319L21.8024 2.78476C19.9425 0.594082 18.7639 6.27499 16.7015 3.4531C16.8488 3.75014 16.9224 3.8244 16.9593 4.08432C14.6022 2.85902 12.0978 5.23535 9.7775 3.26745C9.11456 2.85902 9.04091 3.75014 8.63578 4.41849L8.48846 3.30458L7.80711 4.56701C6.83113 5.53239 6.11295 1.81938 4.87916 3.63875L5.0449 4.38136C4.58453 4.23284 3.62696 4.82692 3.70062 3.9358C3.66379 4.08432 3.5533 4.75266 3.38757 4.34423L3.36915 3.75014L2.28268 4.75266C1.4356 4.34423 2.41158 2.41346 1.17779 2.30207C0.717421 2.56198 -0.129659 4.04719 0.0360743 4.41849C0.220222 4.45562 0.514859 4.78979 0.514859 5.38387L0.108887 5.68091C0.0352283 7.42603 -0.295392 9.17114 0.735836 10.3964L1.45401 9.3568L1.69341 10.2108H1.08572C1.4356 10.9905 1.63816 10.285 1.89597 9.83949C1.95121 10.285 2.0617 10.5821 2.1906 10.7677L2.89037 9.13401C2.98244 9.76523 2.57731 10.4336 3.0561 10.8049C3.38757 10.0251 2.74305 9.28253 3.27708 8.79984C3.62696 9.57958 3.51647 10.2108 3.92159 9.54245C3.97684 9.98801 3.88476 10.285 3.73745 10.4707C4.10574 9.95088 4.69502 10.2479 4.87916 9.31967C5.22904 10.285 6.09454 9.05975 6.05771 10.6935C6.1682 10.285 6.68381 9.39393 7.01528 9.3568C6.40759 11.3247 8.24907 9.46819 8.08334 11.5846C8.52529 9.83949 9.68542 10.8049 10.4773 9.83949C10.4404 9.95088 10.3668 10.2479 10.2931 10.1737C10.7351 10.285 10.864 10.842 11.1402 11.1762C11.1954 9.7281 11.8952 9.39393 12.2635 8.5028C12.8159 9.91375 11.932 10.2108 12.0978 11.5475C12.0793 10.3593 13.0553 10.3593 12.8712 9.39393C13.2947 10.2479 13.2395 9.80236 13.442 11.0277C13.5157 9.20828 13.8287 10.7306 14.1786 9.61671C14.7863 10.5078 14.3259 11.3247 14.9889 10.7677C15.3203 11.2876 14.7311 11.9188 14.7311 11.9188ZM30.4757 8.79984C30.3468 8.83697 30.2179 8.8741 30.1443 8.8741C30.2179 8.83697 30.31 8.83697 30.4757 8.79984ZM31.8016 8.76271C31.6358 8.72558 31.4333 8.72558 31.2307 8.72558C31.1755 8.35428 31.2307 7.98298 31.3596 8.02011C31.286 8.24289 31.599 8.46567 31.8016 8.76271ZM29.0025 1.52234C29.2051 1.37382 29.2788 1.5966 29.3156 1.78225C29.2235 1.78225 29.0946 1.81938 28.9473 1.89364C28.9473 1.93077 28.9289 1.9679 28.9289 2.00503C28.9289 1.85651 28.9657 1.67086 29.0025 1.52234Z" fill="#FA668C"/>
<path d="M28.6156 2.89615C28.5972 2.93328 28.5788 2.97041 28.5419 2.97041C28.5788 3.04467 28.634 3.15606 28.6708 3.19319C28.6893 3.0818 28.7261 2.97041 28.7445 2.85902C28.6893 2.89615 28.6524 2.89615 28.6156 2.89615Z" fill="#FA668C"/>
<path d="M148.643 4.45562L148.605 4.41849C148.624 4.45562 148.643 4.49275 148.661 4.56701C148.643 4.52988 148.643 4.49275 148.643 4.45562Z" fill="#FA668C"/>
<path d="M50.0865 10.7677L50.0875 10.5078L49.9583 10.7306L50.0865 10.7677Z" fill="#FA668C"/>
<path d="M155.935 8.02011C155.954 8.09437 155.972 8.20576 156.027 8.28002C156.027 8.24289 155.972 8.1315 155.935 8.02011Z" fill="#FA668C"/>
<path d="M159.084 8.28002L159.526 8.65132C159.324 8.42854 159.195 8.31715 159.084 8.28002Z" fill="#FA668C"/>
<path d="M161.497 8.79984C161.533 8.61419 161.533 8.46567 161.552 8.35428L161.497 8.79984Z" fill="#FA668C"/>
<path d="M122.991 10.0251C122.955 10.0251 122.918 10.0623 122.899 10.0623C122.678 10.2479 122.826 10.1737 122.991 10.0251Z" fill="#FA668C"/>
<path d="M134.446 7.57455C134.317 7.7602 134.206 7.94585 134.077 8.05724C134.28 8.1315 134.446 8.16863 134.446 7.57455Z" fill="#FA668C"/>
<path d="M110.193 11.2876C110.193 11.2504 110.193 11.2504 110.193 11.2876C110.174 11.2876 110.138 11.2876 110.119 11.2876H110.193Z" fill="#FA668C"/>
<path d="M133.543 8.05724C133.746 8.28002 133.911 8.20576 134.077 8.05724C133.911 7.98298 133.727 7.90872 133.543 8.05724Z" fill="#FA668C"/>
<path d="M171.993 9.2454L172.103 9.28254C172.103 9.20828 172.103 9.17115 172.121 9.09688L171.993 9.2454Z" fill="#FA668C"/>
<path d="M172.122 9.13401L172.25 9.02262C172.195 9.02262 172.14 9.02262 172.122 9.13401Z" fill="#FA668C"/>
<path d="M172.527 8.76271L172.25 9.02262C172.342 9.02262 172.472 9.05975 172.527 8.76271Z" fill="#FA668C"/>
<path d="M168.79 8.76271L168.752 9.13401C168.771 9.09688 168.79 8.94836 168.79 8.76271Z" fill="#FA668C"/>
<path d="M167.813 8.8741C168.052 8.94837 168.402 9.69097 168.715 9.43106L168.752 9.13401C168.605 9.7281 168.034 8.24289 167.813 8.8741Z" fill="#FA668C"/>
<path d="M163.743 4.19571L164.554 4.49275C164.406 4.08432 164.222 3.56449 164.59 3.4531C163.578 2.26494 164.811 4.38136 163.743 4.19571Z" fill="#FA668C"/>
<path d="M161.22 3.63875C161.662 3.4531 161.22 3.04467 161.239 2.82189C160.963 3.19319 160.889 3.26745 161.22 3.63875Z" fill="#FA668C"/>
<path d="M142.916 3.63875L142.952 2.67337C142.623 2.82189 142.97 3.04467 142.916 3.63875Z" fill="#FA668C"/>
<path d="M139.436 8.53993L139.749 9.13401L139.915 8.24289L139.436 8.53993Z" fill="#FA668C"/>
<path d="M137.355 1.78225L137.502 1.63373L136.95 1.9679L137.355 1.78225Z" fill="#FA668C"/>
<path d="M106.639 2.11642L106.75 3.30458C106.971 3.04467 107.026 1.74512 106.639 2.11642Z" fill="#FA668C"/>
<path d="M93.3804 3.30458C93.2331 2.7105 92.8648 2.3392 92.6254 2.93328C92.92 2.97041 93.2331 3.4531 93.3804 3.30458Z" fill="#FA668C"/>
<path d="M53.6045 1.37382L53.8623 1.00251L53.3651 1.33669L53.6045 1.37382Z" fill="#FA668C"/>
</svg>
