<svg width="28" height="28" viewBox="0 0 28 28" fill="none" xmlns="http://www.w3.org/2000/svg">
<g clip-path="url(#clip0_1_144)">
<path d="M20.4148 16.7778C20.0673 16.6042 18.3539 15.764 18.0346 15.6492C17.7152 15.5329 17.4831 15.4755 17.251 15.8228C17.0189 16.1687 16.3507 16.9515 16.1467 17.1825C15.9441 17.4136 15.7402 17.4416 15.3927 17.2679C14.3658 16.861 13.4181 16.2791 12.5918 15.5484C11.8298 14.8472 11.1766 14.0374 10.6533 13.1454C10.4508 12.7982 10.6322 12.6105 10.8067 12.4383C10.9628 12.2828 11.1555 12.0336 11.3286 11.8305C11.4719 11.6552 11.5894 11.4605 11.6775 11.2522C11.7238 11.1565 11.7454 11.0507 11.7402 10.9446C11.7351 10.8385 11.7033 10.7353 11.6479 10.6445C11.5607 10.4708 10.8643 8.76387 10.5746 8.06931C10.2918 7.39437 10.0048 7.48539 9.78959 7.47418C9.58702 7.46438 9.3549 7.46158 9.12279 7.46158C8.94622 7.46648 8.77258 7.5077 8.6128 7.58265C8.45301 7.6576 8.31053 7.76465 8.19433 7.89708C7.80048 8.26835 7.48862 8.71721 7.27863 9.21506C7.06865 9.71291 6.96513 10.2488 6.97468 10.7887C7.08764 12.0969 7.58195 13.3438 8.39691 14.3763C9.89076 16.6057 11.9414 18.41 14.3475 19.612C14.9965 19.8896 15.6595 20.1336 16.3338 20.343C17.0447 20.5578 17.7962 20.6044 18.5283 20.4788C19.0132 20.381 19.4725 20.1842 19.8771 19.9008C20.2817 19.6173 20.6229 19.2534 20.879 18.8321C21.1075 18.3139 21.178 17.7402 21.0816 17.1825C20.9958 17.0369 20.7637 16.9515 20.4148 16.7778V16.7778ZM23.9204 4.06444C21.5289 1.68441 18.3499 0.250575 14.9754 0.0298804C11.601 -0.190814 8.26088 0.816669 5.57705 2.86476C2.89322 4.91286 1.04853 7.86199 0.386426 11.1631C-0.275682 14.4642 0.289906 17.8924 1.97789 20.8093L0 27.9999L7.39108 26.0716C9.43531 27.1796 11.7258 27.7602 14.0535 27.7604H14.0591C16.8165 27.759 19.5115 26.9441 21.8038 25.4187C24.0961 23.8933 25.8828 21.7257 26.9381 19.19C27.9934 16.6542 28.2699 13.864 27.7328 11.1718C27.1957 8.47965 25.869 6.00636 23.9204 4.06442V4.06444ZM20.2164 23.6533C18.371 24.8048 16.2371 25.4157 14.0591 25.4163H14.0535C11.9784 25.4162 9.9415 24.8604 8.15635 23.8073L7.73292 23.5581L3.34666 24.7035L4.51708 20.4466L4.24277 20.0097C3.02529 18.0771 2.41087 15.8285 2.4772 13.5482C2.54354 11.268 3.28765 9.05854 4.61544 7.19926C5.94324 5.33999 7.79508 3.91438 9.9368 3.10273C12.0785 2.29107 14.4139 2.12981 16.6477 2.63934C18.8815 3.14887 20.9134 4.3063 22.4863 5.96528C24.0593 7.62426 25.1028 9.71028 25.4848 11.9596C25.8667 14.2088 25.5701 16.5204 24.6323 18.6018C23.6946 20.6833 22.1579 22.4412 20.2164 23.6533" fill="#414BA0"/>
</g>
<defs>
<clipPath id="clip0_1_144">
<rect width="28" height="28" fill="white"/>
</clipPath>
</defs>
</svg>
